# Blender v2.93.0 OBJ File: 'Assets.blend'
# www.blender.org
mtllib Shelf_mid_5.mtl
o Shelf_mid_5_Cube.007
v -7.782022 -0.020350 -1.737124
v -7.782022 3.529033 -1.737124
v -7.727554 -0.020350 -1.737124
v -7.727554 3.529033 -1.737124
v -7.782022 -0.474450 -1.737124
v -7.727554 -0.474450 -1.737124
v -6.813361 -0.020350 -1.737124
v -6.775329 -0.020350 -1.802171
v -6.786468 -0.020350 -1.756176
v -6.775329 -0.474450 -1.802171
v -6.813361 -0.474450 -1.737124
v -6.786468 -0.474450 -1.756176
v -7.720442 -0.022044 -1.728980
v -7.720442 0.022044 -1.728980
v -6.770005 -0.022044 -1.728980
v -6.770005 0.022044 -1.728980
v -6.764160 -0.030409 -1.726080
v -6.783654 0.028154 -1.726080
v -6.739930 -0.012720 -1.726080
v -6.759423 0.045842 -1.726080
v -7.658728 -0.211570 -2.252192
v -7.658728 -0.007331 -2.252192
v -7.658728 -0.211570 -2.325543
v -7.658728 -0.007331 -2.325543
v -7.598868 -0.211570 -2.252192
v -7.410851 -0.007331 -2.252192
v -7.598868 -0.211570 -2.325543
v -7.410851 -0.007331 -2.325543
v -7.658728 -0.109451 -2.252192
v -7.658728 -0.109451 -2.325543
v -7.533023 -0.109451 -2.325543
v -7.533023 -0.109451 -2.252192
v -7.720442 0.757956 -1.728980
v -7.720442 0.802044 -1.728980
v -6.770005 0.757956 -1.728980
v -6.770005 0.802044 -1.728980
v -6.764160 0.749591 -1.726080
v -6.783654 0.808154 -1.726080
v -6.739930 0.767280 -1.726080
v -6.759423 0.825842 -1.726080
v -7.730750 0.568430 -2.252192
v -7.730750 0.772669 -2.252192
v -7.730750 0.568430 -2.325543
v -7.730750 0.772669 -2.325543
v -7.670890 0.568430 -2.252192
v -7.482873 0.772669 -2.252192
v -7.670890 0.568430 -2.325543
v -7.482873 0.772669 -2.325543
v -7.730750 0.670549 -2.252192
v -7.730750 0.670549 -2.325543
v -7.605046 0.670549 -2.325543
v -7.605046 0.670549 -2.252192
v -7.720442 1.537956 -1.728980
v -7.720442 1.582044 -1.728980
v -6.770005 1.537956 -1.728980
v -6.770005 1.582044 -1.728980
v -6.764160 1.529591 -1.726080
v -6.783654 1.588154 -1.726080
v -6.739930 1.547279 -1.726080
v -6.759423 1.605842 -1.726080
v -7.730750 1.348430 -2.252192
v -7.730750 1.552669 -2.252192
v -7.730750 1.348430 -2.325543
v -7.730750 1.552669 -2.325543
v -7.670890 1.348430 -2.252192
v -7.482873 1.552669 -2.252192
v -7.670890 1.348430 -2.325543
v -7.482873 1.552669 -2.325543
v -7.730750 1.450549 -2.252192
v -7.730750 1.450549 -2.325543
v -7.605046 1.450549 -2.325543
v -7.605046 1.450549 -2.252192
v -7.720442 2.317956 -1.728980
v -7.720442 2.362044 -1.728980
v -6.770005 2.317956 -1.728980
v -6.770005 2.362044 -1.728980
v -6.764160 2.309591 -1.726080
v -6.783654 2.368154 -1.726080
v -6.739930 2.327280 -1.726080
v -6.759423 2.385842 -1.726080
v -7.730750 2.128430 -2.252192
v -7.730750 2.332669 -2.252192
v -7.730750 2.128430 -2.325543
v -7.730750 2.332669 -2.325543
v -7.670890 2.128430 -2.252192
v -7.482873 2.332669 -2.252192
v -7.670890 2.128430 -2.325543
v -7.482873 2.332669 -2.325543
v -7.730750 2.230549 -2.252192
v -7.730750 2.230549 -2.325543
v -7.605046 2.230549 -2.325543
v -7.605046 2.230549 -2.252192
v -7.720442 3.097956 -1.728980
v -7.720442 3.142044 -1.728980
v -6.770005 3.097956 -1.728980
v -6.770005 3.142044 -1.728980
v -6.764160 3.089591 -1.726080
v -6.783654 3.148154 -1.726080
v -6.739930 3.107280 -1.726080
v -6.759423 3.165842 -1.726080
v -7.730750 2.908430 -2.252192
v -7.730750 3.112669 -2.252192
v -7.730750 2.908430 -2.325543
v -7.730750 3.112669 -2.325543
v -7.670890 2.908430 -2.252192
v -7.482873 3.112669 -2.252192
v -7.670890 2.908430 -2.325543
v -7.482873 3.112669 -2.325543
v -7.730750 3.010549 -2.252192
v -7.730750 3.010549 -2.325543
v -7.605046 3.010549 -2.325543
v -7.605046 3.010549 -2.252192
v -7.782022 -0.020350 -5.157759
v -7.782022 3.529033 -5.157759
v -7.727554 -0.020350 -5.157759
v -7.727554 3.529033 -5.157759
v -7.782022 -0.474450 -5.157759
v -7.727554 -0.474450 -5.157759
v -6.813361 -0.020350 -5.157759
v -6.775329 -0.020350 -5.092712
v -6.786468 -0.020350 -5.138707
v -6.775329 -0.474450 -5.092712
v -6.813361 -0.474450 -5.157759
v -6.786468 -0.474450 -5.138707
v -7.782022 -0.020350 -3.447441
v -7.782022 3.529033 -3.447441
v -7.727554 -0.020350 -3.447441
v -7.727554 3.529033 -3.447441
v -7.782022 -0.474450 -3.447441
v -7.727554 -0.474450 -3.447441
v -6.775329 -0.020350 -3.447441
v -6.775329 -0.474450 -3.447441
v -7.720442 -0.022044 -5.165903
v -7.720442 0.022044 -5.165903
v -6.770005 -0.022044 -5.165903
v -6.770005 0.022044 -5.165903
v -6.764160 -0.030409 -5.168803
v -6.783654 0.028154 -5.168803
v -6.739930 -0.012720 -5.168803
v -6.759423 0.045842 -5.168803
v -7.658728 -0.211570 -4.642691
v -7.658728 -0.007331 -4.642691
v -7.658728 -0.211570 -4.569340
v -7.658728 -0.007331 -4.569340
v -7.598868 -0.211570 -4.642691
v -7.410851 -0.007331 -4.642691
v -7.598868 -0.211570 -4.569340
v -7.410851 -0.007331 -4.569340
v -7.658728 -0.109451 -4.642691
v -7.658728 -0.109451 -4.569340
v -7.533023 -0.109451 -4.569340
v -7.533023 -0.109451 -4.642691
v -7.720442 0.757956 -5.165903
v -7.720442 0.802044 -5.165903
v -6.770005 0.757956 -5.165903
v -6.770005 0.802044 -5.165903
v -6.764160 0.749591 -5.168803
v -6.783654 0.808154 -5.168803
v -6.739930 0.767280 -5.168803
v -6.759423 0.825842 -5.168803
v -7.730750 0.568430 -4.642691
v -7.730750 0.772669 -4.642691
v -7.730750 0.568430 -4.569340
v -7.730750 0.772669 -4.569340
v -7.670890 0.568430 -4.642691
v -7.482873 0.772669 -4.642691
v -7.670890 0.568430 -4.569340
v -7.482873 0.772669 -4.569340
v -7.730750 0.670549 -4.642691
v -7.730750 0.670549 -4.569340
v -7.605046 0.670549 -4.569340
v -7.605046 0.670549 -4.642691
v -7.720442 1.537956 -5.165903
v -7.720442 1.582044 -5.165903
v -6.770005 1.537956 -5.165903
v -6.770005 1.582044 -5.165903
v -6.764160 1.529591 -5.168803
v -6.783654 1.588154 -5.168803
v -6.739930 1.547279 -5.168803
v -6.759423 1.605842 -5.168803
v -7.730750 1.348430 -4.642691
v -7.730750 1.552669 -4.642691
v -7.730750 1.348430 -4.569340
v -7.730750 1.552669 -4.569340
v -7.670890 1.348430 -4.642691
v -7.482873 1.552669 -4.642691
v -7.670890 1.348430 -4.569340
v -7.482873 1.552669 -4.569340
v -7.730750 1.450549 -4.642691
v -7.730750 1.450549 -4.569340
v -7.605046 1.450549 -4.569340
v -7.605046 1.450549 -4.642691
v -7.720442 2.317956 -5.165903
v -7.720442 2.362044 -5.165903
v -6.770005 2.317956 -5.165903
v -6.770005 2.362044 -5.165903
v -6.764160 2.309591 -5.168803
v -6.783654 2.368154 -5.168803
v -6.739930 2.327280 -5.168803
v -6.759423 2.385842 -5.168803
v -7.730750 2.128430 -4.642691
v -7.730750 2.332669 -4.642691
v -7.730750 2.128430 -4.569340
v -7.730750 2.332669 -4.569340
v -7.670890 2.128430 -4.642691
v -7.482873 2.332669 -4.642691
v -7.670890 2.128430 -4.569340
v -7.482873 2.332669 -4.569340
v -7.730750 2.230549 -4.642691
v -7.730750 2.230549 -4.569340
v -7.605046 2.230549 -4.569340
v -7.605046 2.230549 -4.642691
v -7.720442 3.097956 -5.165903
v -7.720442 3.142044 -5.165903
v -6.770005 3.097956 -5.165903
v -6.770005 3.142044 -5.165903
v -6.764160 3.089591 -5.168803
v -6.783654 3.148154 -5.168803
v -6.739930 3.107280 -5.168803
v -6.759423 3.165842 -5.168803
v -7.730750 2.908430 -4.642691
v -7.730750 3.112669 -4.642691
v -7.730750 2.908430 -4.569340
v -7.730750 3.112669 -4.569340
v -7.670890 2.908430 -4.642691
v -7.482873 3.112669 -4.642691
v -7.670890 2.908430 -4.569340
v -7.482873 3.112669 -4.569340
v -7.730750 3.010549 -4.642691
v -7.730750 3.010549 -4.569340
v -7.605046 3.010549 -4.569340
v -7.605046 3.010549 -4.642691
v -7.720442 -0.022044 -3.447441
v -7.720442 0.022044 -3.447441
v -6.770005 -0.022044 -3.447441
v -6.770005 0.022044 -3.447441
v -6.764160 -0.030409 -3.447441
v -6.783654 0.028154 -3.447441
v -6.739930 -0.012720 -3.447441
v -6.759423 0.045842 -3.447441
v -7.720442 0.757956 -3.447441
v -7.720442 0.802044 -3.447441
v -6.770005 0.757956 -3.447441
v -6.770005 0.802044 -3.447441
v -6.764160 0.749591 -3.447441
v -6.783654 0.808154 -3.447441
v -6.739930 0.767280 -3.447441
v -6.759423 0.825842 -3.447441
v -7.720442 1.537956 -3.447441
v -7.720442 1.582044 -3.447441
v -6.770005 1.537956 -3.447441
v -6.770005 1.582044 -3.447441
v -6.764160 1.529591 -3.447441
v -6.783654 1.588154 -3.447441
v -6.739930 1.547279 -3.447441
v -6.759423 1.605842 -3.447441
v -7.720442 2.317956 -3.447441
v -7.720442 2.362044 -3.447441
v -6.770005 2.317956 -3.447441
v -6.770005 2.362044 -3.447441
v -6.764160 2.309591 -3.447441
v -6.783654 2.368154 -3.447441
v -6.739930 2.327280 -3.447441
v -6.759423 2.385842 -3.447441
v -7.720442 3.097956 -3.447441
v -7.720442 3.142044 -3.447441
v -6.770005 3.097956 -3.447441
v -6.770005 3.142044 -3.447441
v -6.764160 3.089591 -3.447441
v -6.783654 3.148154 -3.447441
v -6.739930 3.107280 -3.447441
v -6.759423 3.165842 -3.447441
vt 0.311012 0.190059
vt 0.311012 0.190059
vt 0.311012 0.190059
vt 0.311012 0.190059
vt 0.311012 0.190059
vt 0.311012 0.190059
vt 0.311012 0.190059
vt 0.311012 0.190059
vt 0.311012 0.190059
vt 0.311012 0.190059
vt 0.311012 0.190059
vt 0.311012 0.190059
vt 0.311012 0.190059
vt 0.311012 0.190059
vt 0.311012 0.190059
vt 0.311012 0.190059
vt 0.311012 0.190059
vt 0.311012 0.190059
vt 0.311012 0.190059
vt 0.311012 0.190059
vt 0.311012 0.190059
vt 0.311012 0.190059
vt 0.311012 0.190059
vt 0.311012 0.190059
vt 0.311012 0.190059
vt 0.311012 0.190059
vt 0.311012 0.190059
vt 0.311012 0.190059
vt 0.437004 0.438264
vt 0.437004 0.438264
vt 0.437004 0.438264
vt 0.437004 0.438264
vt 0.437004 0.438264
vt 0.437004 0.438264
vt 0.437004 0.438264
vt 0.437004 0.438264
vt 0.311012 0.190059
vt 0.311012 0.190059
vt 0.311012 0.190059
vt 0.311012 0.190059
vt 0.311012 0.190059
vt 0.311012 0.190059
vt 0.311012 0.190059
vt 0.311012 0.190059
vt 0.311012 0.190059
vt 0.311012 0.190059
vt 0.311012 0.190059
vt 0.311012 0.190059
vt 0.311012 0.190059
vt 0.311012 0.190059
vt 0.311012 0.190059
vt 0.311012 0.190059
vt 0.311012 0.190059
vt 0.311012 0.190059
vt 0.311012 0.190059
vt 0.311012 0.190059
vt 0.437004 0.438264
vt 0.437004 0.438264
vt 0.437004 0.438264
vt 0.437004 0.438264
vt 0.437004 0.438264
vt 0.437004 0.438264
vt 0.437004 0.438264
vt 0.437004 0.438264
vt 0.311012 0.190059
vt 0.311012 0.190059
vt 0.311012 0.190059
vt 0.311012 0.190059
vt 0.311012 0.190059
vt 0.311012 0.190059
vt 0.311012 0.190059
vt 0.311012 0.190059
vt 0.311012 0.190059
vt 0.311012 0.190059
vt 0.311012 0.190059
vt 0.311012 0.190059
vt 0.311012 0.190059
vt 0.311012 0.190059
vt 0.311012 0.190059
vt 0.311012 0.190059
vt 0.311012 0.190059
vt 0.311012 0.190059
vt 0.311012 0.190059
vt 0.311012 0.190059
vt 0.437004 0.438264
vt 0.437004 0.438264
vt 0.437004 0.438264
vt 0.437004 0.438264
vt 0.437004 0.438264
vt 0.437004 0.438264
vt 0.437004 0.438264
vt 0.437004 0.438264
vt 0.311012 0.190059
vt 0.311012 0.190059
vt 0.311012 0.190059
vt 0.311012 0.190059
vt 0.311012 0.190059
vt 0.311012 0.190059
vt 0.311012 0.190059
vt 0.311012 0.190059
vt 0.311012 0.190059
vt 0.311012 0.190059
vt 0.311012 0.190059
vt 0.311012 0.190059
vt 0.311012 0.190059
vt 0.311012 0.190059
vt 0.311012 0.190059
vt 0.311012 0.190059
vt 0.311012 0.190059
vt 0.311012 0.190059
vt 0.311012 0.190059
vt 0.311012 0.190059
vt 0.437004 0.438264
vt 0.437004 0.438264
vt 0.437004 0.438264
vt 0.437004 0.438264
vt 0.437004 0.438264
vt 0.437004 0.438264
vt 0.437004 0.438264
vt 0.437004 0.438264
vt 0.311012 0.190059
vt 0.311012 0.190059
vt 0.311012 0.190059
vt 0.311012 0.190059
vt 0.311012 0.190059
vt 0.311012 0.190059
vt 0.311012 0.190059
vt 0.311012 0.190059
vt 0.311012 0.190059
vt 0.311012 0.190059
vt 0.311012 0.190059
vt 0.311012 0.190059
vt 0.311012 0.190059
vt 0.311012 0.190059
vt 0.311012 0.190059
vt 0.311012 0.190059
vt 0.311012 0.190059
vt 0.311012 0.190059
vt 0.311012 0.190059
vt 0.311012 0.190059
vt 0.434484 0.424405
vt 0.434484 0.424405
vt 0.434484 0.424405
vt 0.434484 0.424405
vt 0.434484 0.424405
vt 0.434484 0.424405
vt 0.434484 0.424405
vt 0.434484 0.424405
vt 0.311012 0.190059
vt 0.311012 0.190059
vt 0.311012 0.190059
vt 0.311012 0.190059
vt 0.311012 0.190059
vt 0.311012 0.190059
vt 0.311012 0.190059
vt 0.311012 0.190059
vt 0.311012 0.190059
vt 0.311012 0.190059
vt 0.311012 0.190059
vt 0.311012 0.190059
vt 0.311012 0.190059
vt 0.311012 0.190059
vt 0.311012 0.190059
vt 0.311012 0.190059
vt 0.311012 0.190059
vt 0.311012 0.190059
vt 0.311012 0.190059
vt 0.311012 0.190059
vt 0.311012 0.190059
vt 0.311012 0.190059
vt 0.311012 0.190059
vt 0.311012 0.190059
vt 0.311012 0.190059
vt 0.311012 0.190059
vt 0.311012 0.190059
vt 0.311012 0.190059
vt 0.437004 0.438264
vt 0.437004 0.438264
vt 0.437004 0.438264
vt 0.437004 0.438264
vt 0.311012 0.190059
vt 0.311012 0.190059
vt 0.311012 0.190059
vt 0.311012 0.190059
vt 0.311012 0.190059
vt 0.311012 0.190059
vt 0.311012 0.190059
vt 0.311012 0.190059
vt 0.311012 0.190059
vt 0.311012 0.190059
vt 0.311012 0.190059
vt 0.311012 0.190059
vt 0.311012 0.190059
vt 0.311012 0.190059
vt 0.311012 0.190059
vt 0.311012 0.190059
vt 0.437004 0.438264
vt 0.437004 0.438264
vt 0.437004 0.438264
vt 0.437004 0.438264
vt 0.311012 0.190059
vt 0.311012 0.190059
vt 0.311012 0.190059
vt 0.311012 0.190059
vt 0.311012 0.190059
vt 0.311012 0.190059
vt 0.311012 0.190059
vt 0.311012 0.190059
vt 0.311012 0.190059
vt 0.311012 0.190059
vt 0.311012 0.190059
vt 0.311012 0.190059
vt 0.311012 0.190059
vt 0.311012 0.190059
vt 0.311012 0.190059
vt 0.311012 0.190059
vt 0.437004 0.438264
vt 0.437004 0.438264
vt 0.437004 0.438264
vt 0.437004 0.438264
vt 0.311012 0.190059
vt 0.311012 0.190059
vt 0.311012 0.190059
vt 0.311012 0.190059
vt 0.311012 0.190059
vt 0.311012 0.190059
vt 0.311012 0.190059
vt 0.311012 0.190059
vt 0.311012 0.190059
vt 0.311012 0.190059
vt 0.311012 0.190059
vt 0.311012 0.190059
vt 0.311012 0.190059
vt 0.311012 0.190059
vt 0.311012 0.190059
vt 0.311012 0.190059
vt 0.437004 0.438264
vt 0.437004 0.438264
vt 0.437004 0.438264
vt 0.437004 0.438264
vt 0.311012 0.190059
vt 0.311012 0.190059
vt 0.311012 0.190059
vt 0.311012 0.190059
vt 0.311012 0.190059
vt 0.311012 0.190059
vt 0.311012 0.190059
vt 0.311012 0.190059
vt 0.311012 0.190059
vt 0.311012 0.190059
vt 0.311012 0.190059
vt 0.311012 0.190059
vt 0.311012 0.190059
vt 0.311012 0.190059
vt 0.311012 0.190059
vt 0.311012 0.190059
vt 0.434484 0.424405
vt 0.434484 0.424405
vt 0.434484 0.424405
vt 0.434484 0.424405
vt 0.311012 0.190059
vt 0.311012 0.190059
vt 0.311012 0.190059
vt 0.311012 0.190059
vt 0.311012 0.190059
vt 0.311012 0.190059
vt 0.311012 0.190059
vt 0.311012 0.190059
vt 0.311012 0.190059
vt 0.311012 0.190059
vt 0.311012 0.190059
vt 0.311012 0.190059
vn 1.0000 0.0000 0.0000
vn 0.0000 0.0000 1.0000
vn 0.0000 1.0000 0.0000
vn 0.0000 -1.0000 0.0000
vn 0.5781 0.0000 0.8160
vn 0.9719 0.0000 0.2354
vn -1.0000 0.0000 0.0000
vn -0.9488 -0.3158 0.0000
vn 0.9488 0.3158 0.0000
vn -0.5896 0.8077 0.0000
vn 0.0000 0.0000 -1.0000
vn 0.6413 -0.7673 0.0000
vn 0.8404 -0.5419 0.0000
vn 0.5896 -0.8077 0.0000
vn 0.5781 0.0000 -0.8160
vn 0.9719 0.0000 -0.2354
usemtl ShelfPallete
s off
f 127/1/1 128/2/1 4/3/1 3/4/1
f 3/4/2 4/3/2 2/5/2 1/6/2
f 128/2/3 126/7/3 2/5/3 4/3/3
f 129/8/4 130/9/4 6/10/4 5/11/4
f 3/4/2 1/6/2 5/11/2 6/10/2
f 3/4/2 6/10/2 11/12/2 7/13/2
f 127/1/3 3/4/3 7/13/3 9/14/3 8/15/3 131/16/3
f 7/13/5 11/12/5 12/17/5 9/14/5
f 9/14/6 12/17/6 10/18/6 8/15/6
f 131/16/1 8/15/1 10/18/1 132/19/1
f 6/10/4 130/9/4 132/19/4 10/18/4 12/17/4 11/12/4
f 1/6/7 2/5/7 126/7/7 125/20/7
f 1/6/7 125/20/7 129/8/7 5/11/7
f 235/21/1 236/22/1 16/23/1 15/24/1
f 15/24/2 16/23/2 14/25/2 13/26/2
f 233/27/4 235/21/4 15/24/4 13/26/4
f 236/22/3 234/28/3 14/25/3 16/23/3
f 237/29/8 17/30/8 18/31/8 238/32/8
f 239/33/9 240/34/9 20/35/9 19/36/9
f 18/31/2 17/30/2 19/36/2 20/35/2
f 238/32/10 18/31/10 20/35/10 240/34/10
f 29/37/7 22/38/7 24/39/7 30/40/7
f 30/40/11 24/39/11 28/41/11 31/42/11
f 31/42/12 28/41/12 26/43/12 32/44/12
f 32/44/2 26/43/2 22/38/2 29/37/2
f 23/45/4 27/46/4 25/47/4 21/48/4
f 28/41/3 24/39/3 22/38/3 26/43/3
f 25/47/2 32/44/2 29/37/2 21/48/2
f 27/46/13 31/42/13 32/44/13 25/47/13
f 23/45/11 30/40/11 31/42/11 27/46/11
f 21/48/7 29/37/7 30/40/7 23/45/7
f 17/30/14 237/29/14 239/33/14 19/36/14
f 13/26/7 14/25/7 234/28/7 233/27/7
f 243/49/1 244/50/1 36/51/1 35/52/1
f 35/52/2 36/51/2 34/53/2 33/54/2
f 241/55/4 243/49/4 35/52/4 33/54/4
f 244/50/3 242/56/3 34/53/3 36/51/3
f 245/57/8 37/58/8 38/59/8 246/60/8
f 247/61/9 248/62/9 40/63/9 39/64/9
f 38/59/2 37/58/2 39/64/2 40/63/2
f 246/60/10 38/59/10 40/63/10 248/62/10
f 49/65/7 42/66/7 44/67/7 50/68/7
f 50/68/11 44/67/11 48/69/11 51/70/11
f 51/70/12 48/69/12 46/71/12 52/72/12
f 52/72/2 46/71/2 42/66/2 49/65/2
f 43/73/4 47/74/4 45/75/4 41/76/4
f 48/69/3 44/67/3 42/66/3 46/71/3
f 45/75/2 52/72/2 49/65/2 41/76/2
f 47/74/13 51/70/13 52/72/13 45/75/13
f 43/73/11 50/68/11 51/70/11 47/74/11
f 41/76/7 49/65/7 50/68/7 43/73/7
f 37/58/14 245/57/14 247/61/14 39/64/14
f 33/54/7 34/53/7 242/56/7 241/55/7
f 251/77/1 252/78/1 56/79/1 55/80/1
f 55/80/2 56/79/2 54/81/2 53/82/2
f 249/83/4 251/77/4 55/80/4 53/82/4
f 252/78/3 250/84/3 54/81/3 56/79/3
f 253/85/8 57/86/8 58/87/8 254/88/8
f 255/89/9 256/90/9 60/91/9 59/92/9
f 58/87/2 57/86/2 59/92/2 60/91/2
f 254/88/10 58/87/10 60/91/10 256/90/10
f 69/93/7 62/94/7 64/95/7 70/96/7
f 70/96/11 64/95/11 68/97/11 71/98/11
f 71/98/12 68/97/12 66/99/12 72/100/12
f 72/100/2 66/99/2 62/94/2 69/93/2
f 63/101/4 67/102/4 65/103/4 61/104/4
f 68/97/3 64/95/3 62/94/3 66/99/3
f 65/103/2 72/100/2 69/93/2 61/104/2
f 67/102/13 71/98/13 72/100/13 65/103/13
f 63/101/11 70/96/11 71/98/11 67/102/11
f 61/104/7 69/93/7 70/96/7 63/101/7
f 57/86/14 253/85/14 255/89/14 59/92/14
f 53/82/7 54/81/7 250/84/7 249/83/7
f 259/105/1 260/106/1 76/107/1 75/108/1
f 75/108/2 76/107/2 74/109/2 73/110/2
f 257/111/4 259/105/4 75/108/4 73/110/4
f 260/106/3 258/112/3 74/109/3 76/107/3
f 261/113/8 77/114/8 78/115/8 262/116/8
f 263/117/9 264/118/9 80/119/9 79/120/9
f 78/115/2 77/114/2 79/120/2 80/119/2
f 262/116/10 78/115/10 80/119/10 264/118/10
f 89/121/7 82/122/7 84/123/7 90/124/7
f 90/124/11 84/123/11 88/125/11 91/126/11
f 91/126/12 88/125/12 86/127/12 92/128/12
f 92/128/2 86/127/2 82/122/2 89/121/2
f 83/129/4 87/130/4 85/131/4 81/132/4
f 88/125/3 84/123/3 82/122/3 86/127/3
f 85/131/2 92/128/2 89/121/2 81/132/2
f 87/130/13 91/126/13 92/128/13 85/131/13
f 83/129/11 90/124/11 91/126/11 87/130/11
f 81/132/7 89/121/7 90/124/7 83/129/7
f 77/114/14 261/113/14 263/117/14 79/120/14
f 73/110/7 74/109/7 258/112/7 257/111/7
f 267/133/1 268/134/1 96/135/1 95/136/1
f 95/136/2 96/135/2 94/137/2 93/138/2
f 265/139/4 267/133/4 95/136/4 93/138/4
f 268/134/3 266/140/3 94/137/3 96/135/3
f 269/141/8 97/142/8 98/143/8 270/144/8
f 271/145/9 272/146/9 100/147/9 99/148/9
f 98/143/2 97/142/2 99/148/2 100/147/2
f 270/144/10 98/143/10 100/147/10 272/146/10
f 109/149/7 102/150/7 104/151/7 110/152/7
f 110/152/11 104/151/11 108/153/11 111/154/11
f 111/154/12 108/153/12 106/155/12 112/156/12
f 112/156/2 106/155/2 102/150/2 109/149/2
f 103/157/4 107/158/4 105/159/4 101/160/4
f 108/153/3 104/151/3 102/150/3 106/155/3
f 105/159/2 112/156/2 109/149/2 101/160/2
f 107/158/13 111/154/13 112/156/13 105/159/13
f 103/157/11 110/152/11 111/154/11 107/158/11
f 101/160/7 109/149/7 110/152/7 103/157/7
f 97/142/14 269/141/14 271/145/14 99/148/14
f 93/138/7 94/137/7 266/140/7 265/139/7
f 127/1/1 115/161/1 116/162/1 128/2/1
f 115/161/11 113/163/11 114/164/11 116/162/11
f 128/2/3 116/162/3 114/164/3 126/7/3
f 129/8/4 117/165/4 118/166/4 130/9/4
f 115/161/11 118/166/11 117/165/11 113/163/11
f 115/161/11 119/167/11 123/168/11 118/166/11
f 127/1/3 131/16/3 120/169/3 121/170/3 119/167/3 115/161/3
f 119/167/15 121/170/15 124/171/15 123/168/15
f 121/170/16 120/169/16 122/172/16 124/171/16
f 131/16/1 132/19/1 122/172/1 120/169/1
f 118/166/4 123/168/4 124/171/4 122/172/4 132/19/4 130/9/4
f 113/163/7 125/20/7 126/7/7 114/164/7
f 113/163/7 117/165/7 129/8/7 125/20/7
f 235/21/1 135/173/1 136/174/1 236/22/1
f 135/173/11 133/175/11 134/176/11 136/174/11
f 233/27/4 133/175/4 135/173/4 235/21/4
f 236/22/3 136/174/3 134/176/3 234/28/3
f 237/29/8 238/32/8 138/177/8 137/178/8
f 239/33/9 139/179/9 140/180/9 240/34/9
f 138/177/11 140/180/11 139/179/11 137/178/11
f 238/32/10 240/34/10 140/180/10 138/177/10
f 149/181/7 150/182/7 144/183/7 142/184/7
f 150/182/2 151/185/2 148/186/2 144/183/2
f 151/185/12 152/187/12 146/188/12 148/186/12
f 152/187/11 149/181/11 142/184/11 146/188/11
f 143/189/4 141/190/4 145/191/4 147/192/4
f 148/186/3 146/188/3 142/184/3 144/183/3
f 145/191/11 141/190/11 149/181/11 152/187/11
f 147/192/13 145/191/13 152/187/13 151/185/13
f 143/189/2 147/192/2 151/185/2 150/182/2
f 141/190/7 143/189/7 150/182/7 149/181/7
f 137/178/14 139/179/14 239/33/14 237/29/14
f 133/175/7 233/27/7 234/28/7 134/176/7
f 243/49/1 155/193/1 156/194/1 244/50/1
f 155/193/11 153/195/11 154/196/11 156/194/11
f 241/55/4 153/195/4 155/193/4 243/49/4
f 244/50/3 156/194/3 154/196/3 242/56/3
f 245/57/8 246/60/8 158/197/8 157/198/8
f 247/61/9 159/199/9 160/200/9 248/62/9
f 158/197/11 160/200/11 159/199/11 157/198/11
f 246/60/10 248/62/10 160/200/10 158/197/10
f 169/201/7 170/202/7 164/203/7 162/204/7
f 170/202/2 171/205/2 168/206/2 164/203/2
f 171/205/12 172/207/12 166/208/12 168/206/12
f 172/207/11 169/201/11 162/204/11 166/208/11
f 163/209/4 161/210/4 165/211/4 167/212/4
f 168/206/3 166/208/3 162/204/3 164/203/3
f 165/211/11 161/210/11 169/201/11 172/207/11
f 167/212/13 165/211/13 172/207/13 171/205/13
f 163/209/2 167/212/2 171/205/2 170/202/2
f 161/210/7 163/209/7 170/202/7 169/201/7
f 157/198/14 159/199/14 247/61/14 245/57/14
f 153/195/7 241/55/7 242/56/7 154/196/7
f 251/77/1 175/213/1 176/214/1 252/78/1
f 175/213/11 173/215/11 174/216/11 176/214/11
f 249/83/4 173/215/4 175/213/4 251/77/4
f 252/78/3 176/214/3 174/216/3 250/84/3
f 253/85/8 254/88/8 178/217/8 177/218/8
f 255/89/9 179/219/9 180/220/9 256/90/9
f 178/217/11 180/220/11 179/219/11 177/218/11
f 254/88/10 256/90/10 180/220/10 178/217/10
f 189/221/7 190/222/7 184/223/7 182/224/7
f 190/222/2 191/225/2 188/226/2 184/223/2
f 191/225/12 192/227/12 186/228/12 188/226/12
f 192/227/11 189/221/11 182/224/11 186/228/11
f 183/229/4 181/230/4 185/231/4 187/232/4
f 188/226/3 186/228/3 182/224/3 184/223/3
f 185/231/11 181/230/11 189/221/11 192/227/11
f 187/232/13 185/231/13 192/227/13 191/225/13
f 183/229/2 187/232/2 191/225/2 190/222/2
f 181/230/7 183/229/7 190/222/7 189/221/7
f 177/218/14 179/219/14 255/89/14 253/85/14
f 173/215/7 249/83/7 250/84/7 174/216/7
f 259/105/1 195/233/1 196/234/1 260/106/1
f 195/233/11 193/235/11 194/236/11 196/234/11
f 257/111/4 193/235/4 195/233/4 259/105/4
f 260/106/3 196/234/3 194/236/3 258/112/3
f 261/113/8 262/116/8 198/237/8 197/238/8
f 263/117/9 199/239/9 200/240/9 264/118/9
f 198/237/11 200/240/11 199/239/11 197/238/11
f 262/116/10 264/118/10 200/240/10 198/237/10
f 209/241/7 210/242/7 204/243/7 202/244/7
f 210/242/2 211/245/2 208/246/2 204/243/2
f 211/245/12 212/247/12 206/248/12 208/246/12
f 212/247/11 209/241/11 202/244/11 206/248/11
f 203/249/4 201/250/4 205/251/4 207/252/4
f 208/246/3 206/248/3 202/244/3 204/243/3
f 205/251/11 201/250/11 209/241/11 212/247/11
f 207/252/13 205/251/13 212/247/13 211/245/13
f 203/249/2 207/252/2 211/245/2 210/242/2
f 201/250/7 203/249/7 210/242/7 209/241/7
f 197/238/14 199/239/14 263/117/14 261/113/14
f 193/235/7 257/111/7 258/112/7 194/236/7
f 267/133/1 215/253/1 216/254/1 268/134/1
f 215/253/11 213/255/11 214/256/11 216/254/11
f 265/139/4 213/255/4 215/253/4 267/133/4
f 268/134/3 216/254/3 214/256/3 266/140/3
f 269/141/8 270/144/8 218/257/8 217/258/8
f 271/145/9 219/259/9 220/260/9 272/146/9
f 218/257/11 220/260/11 219/259/11 217/258/11
f 270/144/10 272/146/10 220/260/10 218/257/10
f 229/261/7 230/262/7 224/263/7 222/264/7
f 230/262/2 231/265/2 228/266/2 224/263/2
f 231/265/12 232/267/12 226/268/12 228/266/12
f 232/267/11 229/261/11 222/264/11 226/268/11
f 223/269/4 221/270/4 225/271/4 227/272/4
f 228/266/3 226/268/3 222/264/3 224/263/3
f 225/271/11 221/270/11 229/261/11 232/267/11
f 227/272/13 225/271/13 232/267/13 231/265/13
f 223/269/2 227/272/2 231/265/2 230/262/2
f 221/270/7 223/269/7 230/262/7 229/261/7
f 217/258/14 219/259/14 271/145/14 269/141/14
f 213/255/7 265/139/7 266/140/7 214/256/7
