# Blender v2.93.0 OBJ File: 'Assets.blend'
# www.blender.org
mtllib Shelf_end_4.mtl
o Shelf_end_4_Cube.011
v -7.720406 -0.022044 1.727984
v -7.720406 0.022044 1.727984
v -6.769968 -0.022044 1.727984
v -6.769968 0.022044 1.727984
v -6.764123 -0.030409 1.730884
v -6.783617 0.028154 1.730884
v -6.739893 -0.012720 1.730884
v -6.759387 0.045842 1.730884
v -7.658691 -0.211570 1.204772
v -7.658691 -0.007331 1.204772
v -7.658691 -0.211570 1.131421
v -7.658691 -0.007331 1.131421
v -7.598831 -0.211570 1.204772
v -7.410814 -0.007331 1.204772
v -7.598831 -0.211570 1.131421
v -7.410814 -0.007331 1.131421
v -7.658691 -0.109451 1.204772
v -7.658691 -0.109451 1.131421
v -7.532987 -0.109451 1.131421
v -7.532987 -0.109451 1.204772
v -7.720406 1.012956 1.727984
v -7.720406 1.057044 1.727984
v -6.769968 1.012956 1.727984
v -6.769968 1.057044 1.727984
v -6.764123 1.004591 1.730884
v -6.783617 1.063154 1.730884
v -6.739893 1.022280 1.730884
v -6.759387 1.080842 1.730884
v -7.730713 0.823430 1.204772
v -7.730713 1.027669 1.204772
v -7.730713 0.823430 1.131421
v -7.730713 1.027669 1.131421
v -7.670853 0.823430 1.204772
v -7.482836 1.027669 1.204772
v -7.670853 0.823430 1.131421
v -7.482836 1.027669 1.131421
v -7.730713 0.925549 1.204772
v -7.730713 0.925549 1.131421
v -7.605009 0.925549 1.131421
v -7.605009 0.925549 1.204772
v -7.720406 2.047956 1.727984
v -7.720406 2.092044 1.727984
v -6.769968 2.047956 1.727984
v -6.769968 2.092044 1.727984
v -6.764123 2.039591 1.730884
v -6.783617 2.098154 1.730884
v -6.739893 2.057280 1.730884
v -6.759387 2.115842 1.730884
v -7.730713 1.858430 1.204772
v -7.730713 2.062669 1.204772
v -7.730713 1.858430 1.131421
v -7.730713 2.062669 1.131421
v -7.670853 1.858430 1.204772
v -7.482836 2.062669 1.204772
v -7.670853 1.858430 1.131421
v -7.482836 2.062669 1.131421
v -7.730713 1.960549 1.204772
v -7.730713 1.960549 1.131421
v -7.605009 1.960549 1.131421
v -7.605009 1.960549 1.204772
v -7.720406 3.082956 1.727984
v -7.720406 3.127044 1.727984
v -6.769968 3.082956 1.727984
v -6.769968 3.127044 1.727984
v -6.764123 3.074591 1.730884
v -6.783617 3.133154 1.730884
v -6.739893 3.092280 1.730884
v -6.759387 3.150842 1.730884
v -7.730713 2.893430 1.204772
v -7.730713 3.097669 1.204772
v -7.730713 2.893430 1.131421
v -7.730713 3.097669 1.131421
v -7.670853 2.893430 1.204772
v -7.482836 3.097669 1.204772
v -7.670853 2.893430 1.131421
v -7.482836 3.097669 1.131421
v -7.730713 2.995549 1.204772
v -7.730713 2.995549 1.131421
v -7.605009 2.995549 1.131421
v -7.605009 2.995549 1.204772
v -7.720406 -0.022044 -1.708938
v -7.720406 0.022044 -1.708938
v -6.769968 -0.022044 -1.708938
v -6.769968 0.022044 -1.708938
v -6.764123 -0.030409 -1.711839
v -6.783617 0.028154 -1.711839
v -6.739893 -0.012720 -1.711839
v -6.759387 0.045842 -1.711839
v -7.658691 -0.211570 -1.185727
v -7.658691 -0.007331 -1.185727
v -7.658691 -0.211570 -1.112376
v -7.658691 -0.007331 -1.112376
v -7.598831 -0.211570 -1.185727
v -7.410814 -0.007331 -1.185727
v -7.598831 -0.211570 -1.112376
v -7.410814 -0.007331 -1.112376
v -7.658691 -0.109451 -1.185727
v -7.658691 -0.109451 -1.112376
v -7.532987 -0.109451 -1.112376
v -7.532987 -0.109451 -1.185727
v -7.720406 -0.022044 0.009523
v -7.720406 0.022044 0.009523
v -6.769968 -0.022044 0.009523
v -6.769968 0.022044 0.009523
v -6.764123 -0.030409 0.009523
v -6.783617 0.028154 0.009523
v -6.739893 -0.012720 0.009523
v -6.759387 0.045842 0.009523
v -7.720406 1.012956 -1.708938
v -7.720406 1.057044 -1.708938
v -6.769968 1.012956 -1.708938
v -6.769968 1.057044 -1.708938
v -6.764123 1.004591 -1.711839
v -6.783617 1.063154 -1.711839
v -6.739893 1.022280 -1.711839
v -6.759387 1.080842 -1.711839
v -7.730713 0.823430 -1.185727
v -7.730713 1.027669 -1.185727
v -7.730713 0.823430 -1.112376
v -7.730713 1.027669 -1.112376
v -7.670853 0.823430 -1.185727
v -7.482836 1.027669 -1.185727
v -7.670853 0.823430 -1.112376
v -7.482836 1.027669 -1.112376
v -7.730713 0.925549 -1.185727
v -7.730713 0.925549 -1.112376
v -7.605009 0.925549 -1.112376
v -7.605009 0.925549 -1.185727
v -7.720406 1.012956 0.009523
v -7.720406 1.057044 0.009523
v -6.769968 1.012956 0.009523
v -6.769968 1.057044 0.009523
v -6.764123 1.004591 0.009523
v -6.783617 1.063154 0.009523
v -6.739893 1.022280 0.009523
v -6.759387 1.080842 0.009523
v -7.720406 2.047956 -1.708938
v -7.720406 2.092044 -1.708938
v -6.769968 2.047956 -1.708938
v -6.769968 2.092044 -1.708938
v -6.764123 2.039591 -1.711839
v -6.783617 2.098154 -1.711839
v -6.739893 2.057280 -1.711839
v -6.759387 2.115842 -1.711839
v -7.730713 1.858430 -1.185727
v -7.730713 2.062669 -1.185727
v -7.730713 1.858430 -1.112376
v -7.730713 2.062669 -1.112376
v -7.670853 1.858430 -1.185727
v -7.482836 2.062669 -1.185727
v -7.670853 1.858430 -1.112376
v -7.482836 2.062669 -1.112376
v -7.730713 1.960549 -1.185727
v -7.730713 1.960549 -1.112376
v -7.605009 1.960549 -1.112376
v -7.605009 1.960549 -1.185727
v -7.720406 2.047956 0.009523
v -7.720406 2.092044 0.009523
v -6.769968 2.047956 0.009523
v -6.769968 2.092044 0.009523
v -6.764123 2.039591 0.009523
v -6.783617 2.098154 0.009523
v -6.739893 2.057280 0.009523
v -6.759387 2.115842 0.009523
v -7.720406 3.082956 -1.708938
v -7.720406 3.127044 -1.708938
v -6.769968 3.082956 -1.708938
v -6.769968 3.127044 -1.708938
v -6.764123 3.074591 -1.711839
v -6.783617 3.133154 -1.711839
v -6.739893 3.092280 -1.711839
v -6.759387 3.150842 -1.711839
v -7.730713 2.893430 -1.185727
v -7.730713 3.097669 -1.185727
v -7.730713 2.893430 -1.112376
v -7.730713 3.097669 -1.112376
v -7.670853 2.893430 -1.185727
v -7.482836 3.097669 -1.185727
v -7.670853 2.893430 -1.112376
v -7.482836 3.097669 -1.112376
v -7.730713 2.995549 -1.185727
v -7.730713 2.995549 -1.112376
v -7.605009 2.995549 -1.112376
v -7.605009 2.995549 -1.185727
v -7.720406 3.082956 0.009523
v -7.720406 3.127044 0.009523
v -6.769968 3.082956 0.009523
v -6.769968 3.127044 0.009523
v -6.764123 3.074591 0.009523
v -6.783617 3.133154 0.009523
v -6.739893 3.092280 0.009523
v -6.759387 3.150842 0.009523
v -7.781985 -0.020350 1.719840
v -7.781985 3.529033 1.719840
v -7.727518 -0.020350 1.719840
v -7.727518 3.529033 1.719840
v -7.781985 -0.474450 1.719840
v -7.727518 -0.474450 1.719840
v -6.813324 -0.020350 1.719840
v -6.775292 -0.020350 1.654793
v -6.786431 -0.020350 1.700788
v -6.775292 -0.474450 1.654793
v -6.813324 -0.474450 1.719840
v -6.786431 -0.474450 1.700788
v -7.781985 -0.020350 1.753810
v -7.781985 3.529033 1.753810
v -7.727518 3.529033 1.753810
v -7.727518 -0.020350 1.753810
v -7.781985 -0.474450 1.753810
v -7.727518 -0.474450 1.753810
v -6.813324 -0.020350 1.719840
v -6.813324 -0.474450 1.719840
v -7.781985 -0.020350 -1.700795
v -7.781985 3.529033 -1.700795
v -7.727518 -0.020350 -1.700795
v -7.727518 3.529033 -1.700795
v -7.781985 -0.474450 -1.700795
v -7.727518 -0.474450 -1.700795
v -6.813324 -0.020350 -1.700795
v -6.775292 -0.020350 -1.635748
v -6.786431 -0.020350 -1.681743
v -6.775292 -0.474450 -1.635748
v -6.813324 -0.474450 -1.700795
v -6.786431 -0.474450 -1.681743
v -7.781985 -0.020350 0.009523
v -7.781985 3.529033 0.009523
v -7.727518 -0.020350 0.009523
v -7.727518 3.529033 0.009523
v -7.781985 -0.474450 0.009523
v -7.727518 -0.474450 0.009523
v -6.775292 -0.020350 0.009523
v -6.775292 -0.474450 0.009523
v -7.781985 -0.020350 -1.700795
v -7.781985 3.529033 -1.700795
v -7.727518 3.529033 -1.700795
v -7.727518 -0.020350 -1.700795
v -7.781985 -0.474450 -1.700795
v -7.727518 -0.474450 -1.700795
v -6.813324 -0.020350 -1.700795
v -6.813324 -0.474450 -1.700795
v -7.767687 -0.461764 1.793588
v -6.794075 -0.461764 1.793588
v -7.767687 3.529033 1.793588
v -6.794075 3.529033 1.793588
v -7.767687 3.529033 1.739360
v -7.767687 -0.461764 1.739360
v -6.794075 -0.461764 1.739360
v -6.794075 3.529033 1.739360
vt 0.311012 0.190059
vt 0.311012 0.190059
vt 0.311012 0.190059
vt 0.311012 0.190059
vt 0.311012 0.190059
vt 0.311012 0.190059
vt 0.311012 0.190059
vt 0.311012 0.190059
vt 0.437004 0.438264
vt 0.437004 0.438264
vt 0.437004 0.438264
vt 0.437004 0.438264
vt 0.437004 0.438264
vt 0.437004 0.438264
vt 0.437004 0.438264
vt 0.437004 0.438264
vt 0.311012 0.190059
vt 0.311012 0.190059
vt 0.311012 0.190059
vt 0.311012 0.190059
vt 0.311012 0.190059
vt 0.311012 0.190059
vt 0.311012 0.190059
vt 0.311012 0.190059
vt 0.311012 0.190059
vt 0.311012 0.190059
vt 0.311012 0.190059
vt 0.311012 0.190059
vt 0.311012 0.190059
vt 0.311012 0.190059
vt 0.311012 0.190059
vt 0.311012 0.190059
vt 0.311012 0.190059
vt 0.311012 0.190059
vt 0.311012 0.190059
vt 0.311012 0.190059
vt 0.437004 0.438264
vt 0.437004 0.438264
vt 0.437004 0.438264
vt 0.437004 0.438264
vt 0.437004 0.438264
vt 0.437004 0.438264
vt 0.437004 0.438264
vt 0.437004 0.438264
vt 0.311012 0.190059
vt 0.311012 0.190059
vt 0.311012 0.190059
vt 0.311012 0.190059
vt 0.311012 0.190059
vt 0.311012 0.190059
vt 0.311012 0.190059
vt 0.311012 0.190059
vt 0.311012 0.190059
vt 0.311012 0.190059
vt 0.311012 0.190059
vt 0.311012 0.190059
vt 0.311012 0.190059
vt 0.311012 0.190059
vt 0.311012 0.190059
vt 0.311012 0.190059
vt 0.311012 0.190059
vt 0.311012 0.190059
vt 0.311012 0.190059
vt 0.311012 0.190059
vt 0.437004 0.438264
vt 0.437004 0.438264
vt 0.437004 0.438264
vt 0.437004 0.438264
vt 0.437004 0.438264
vt 0.437004 0.438264
vt 0.437004 0.438264
vt 0.437004 0.438264
vt 0.311012 0.190059
vt 0.311012 0.190059
vt 0.311012 0.190059
vt 0.311012 0.190059
vt 0.311012 0.190059
vt 0.311012 0.190059
vt 0.311012 0.190059
vt 0.311012 0.190059
vt 0.311012 0.190059
vt 0.311012 0.190059
vt 0.311012 0.190059
vt 0.311012 0.190059
vt 0.311012 0.190059
vt 0.311012 0.190059
vt 0.311012 0.190059
vt 0.311012 0.190059
vt 0.311012 0.190059
vt 0.311012 0.190059
vt 0.311012 0.190059
vt 0.311012 0.190059
vt 0.434484 0.424405
vt 0.434484 0.424405
vt 0.434484 0.424405
vt 0.434484 0.424405
vt 0.434484 0.424405
vt 0.434484 0.424405
vt 0.434484 0.424405
vt 0.434484 0.424405
vt 0.311012 0.190059
vt 0.311012 0.190059
vt 0.311012 0.190059
vt 0.311012 0.190059
vt 0.311012 0.190059
vt 0.311012 0.190059
vt 0.311012 0.190059
vt 0.311012 0.190059
vt 0.311012 0.190059
vt 0.311012 0.190059
vt 0.311012 0.190059
vt 0.311012 0.190059
vt 0.311012 0.190059
vt 0.311012 0.190059
vt 0.311012 0.190059
vt 0.311012 0.190059
vt 0.437004 0.438264
vt 0.437004 0.438264
vt 0.437004 0.438264
vt 0.437004 0.438264
vt 0.311012 0.190059
vt 0.311012 0.190059
vt 0.311012 0.190059
vt 0.311012 0.190059
vt 0.311012 0.190059
vt 0.311012 0.190059
vt 0.311012 0.190059
vt 0.311012 0.190059
vt 0.311012 0.190059
vt 0.311012 0.190059
vt 0.311012 0.190059
vt 0.311012 0.190059
vt 0.311012 0.190059
vt 0.311012 0.190059
vt 0.311012 0.190059
vt 0.311012 0.190059
vt 0.437004 0.438264
vt 0.437004 0.438264
vt 0.437004 0.438264
vt 0.437004 0.438264
vt 0.311012 0.190059
vt 0.311012 0.190059
vt 0.311012 0.190059
vt 0.311012 0.190059
vt 0.311012 0.190059
vt 0.311012 0.190059
vt 0.311012 0.190059
vt 0.311012 0.190059
vt 0.311012 0.190059
vt 0.311012 0.190059
vt 0.311012 0.190059
vt 0.311012 0.190059
vt 0.311012 0.190059
vt 0.311012 0.190059
vt 0.311012 0.190059
vt 0.311012 0.190059
vt 0.437004 0.438264
vt 0.437004 0.438264
vt 0.437004 0.438264
vt 0.437004 0.438264
vt 0.311012 0.190059
vt 0.311012 0.190059
vt 0.311012 0.190059
vt 0.311012 0.190059
vt 0.311012 0.190059
vt 0.311012 0.190059
vt 0.311012 0.190059
vt 0.311012 0.190059
vt 0.311012 0.190059
vt 0.311012 0.190059
vt 0.311012 0.190059
vt 0.311012 0.190059
vt 0.311012 0.190059
vt 0.311012 0.190059
vt 0.311012 0.190059
vt 0.311012 0.190059
vt 0.434484 0.424405
vt 0.434484 0.424405
vt 0.434484 0.424405
vt 0.434484 0.424405
vt 0.311012 0.190059
vt 0.311012 0.190059
vt 0.311012 0.190059
vt 0.311012 0.190059
vt 0.311012 0.190059
vt 0.311012 0.190059
vt 0.311012 0.190059
vt 0.311012 0.190059
vt 0.311012 0.190059
vt 0.311012 0.190059
vt 0.311012 0.190059
vt 0.311012 0.190059
vt 0.311012 0.190059
vt 0.311012 0.190059
vt 0.311012 0.190059
vt 0.311012 0.190059
vt 0.311012 0.190059
vt 0.311012 0.190059
vt 0.311012 0.190059
vt 0.311012 0.190059
vt 0.311012 0.190059
vt 0.311012 0.190059
vt 0.311012 0.190059
vt 0.311012 0.190059
vt 0.311012 0.190059
vt 0.311012 0.190059
vt 0.311012 0.190059
vt 0.311012 0.190059
vt 0.311012 0.190059
vt 0.311012 0.190059
vt 0.311012 0.190059
vt 0.311012 0.190059
vt 0.311012 0.190059
vt 0.311012 0.190059
vt 0.311012 0.190059
vt 0.311012 0.190059
vt 0.311012 0.190059
vt 0.311012 0.190059
vt 0.311012 0.190059
vt 0.311012 0.190059
vt 0.311012 0.190059
vt 0.311012 0.190059
vt 0.311012 0.190059
vt 0.311012 0.190059
vt 0.311012 0.190059
vt 0.311012 0.190059
vt 0.311012 0.190059
vt 0.311012 0.190059
vt 0.311012 0.190059
vt 0.311012 0.190059
vt 0.311012 0.190059
vt 0.311012 0.190059
vt 0.311012 0.190059
vt 0.311012 0.190059
vt 0.311012 0.190059
vt 0.311012 0.190059
vt 0.311012 0.190059
vt 0.311012 0.190059
vt 0.311012 0.190059
vt 0.311012 0.190059
vt 0.311012 0.190059
vt 0.311012 0.190059
vt 0.311012 0.190059
vt 0.311012 0.190059
vt 0.311012 0.190059
vt 0.311012 0.190059
vt 0.311012 0.190059
vt 0.311012 0.190059
vn 1.0000 0.0000 0.0000
vn 0.0000 0.0000 1.0000
vn 0.0000 -1.0000 0.0000
vn 0.0000 1.0000 0.0000
vn -0.9488 -0.3158 0.0000
vn 0.9488 0.3158 0.0000
vn -0.5896 0.8077 0.0000
vn -1.0000 0.0000 0.0000
vn 0.0000 0.0000 -1.0000
vn 0.6413 -0.7673 0.0000
vn 0.8404 -0.5419 0.0000
vn 0.5896 -0.8077 0.0000
vn 0.5781 0.0000 0.8160
vn 0.9719 0.0000 0.2354
vn 0.0371 0.0000 0.9993
vn 0.5781 0.0000 -0.8160
vn 0.9719 0.0000 -0.2354
usemtl ShelfPallete
s off
f 103/1/1 104/2/1 4/3/1 3/4/1
f 3/4/2 4/3/2 2/5/2 1/6/2
f 101/7/3 103/1/3 3/4/3 1/6/3
f 104/2/4 102/8/4 2/5/4 4/3/4
f 105/9/5 5/10/5 6/11/5 106/12/5
f 107/13/6 108/14/6 8/15/6 7/16/6
f 6/11/2 5/10/2 7/16/2 8/15/2
f 106/12/7 6/11/7 8/15/7 108/14/7
f 17/17/8 10/18/8 12/19/8 18/20/8
f 18/20/9 12/19/9 16/21/9 19/22/9
f 19/22/10 16/21/10 14/23/10 20/24/10
f 20/24/2 14/23/2 10/18/2 17/17/2
f 11/25/3 15/26/3 13/27/3 9/28/3
f 16/21/4 12/19/4 10/18/4 14/23/4
f 13/27/2 20/24/2 17/17/2 9/28/2
f 15/26/11 19/22/11 20/24/11 13/27/11
f 11/25/9 18/20/9 19/22/9 15/26/9
f 9/28/8 17/17/8 18/20/8 11/25/8
f 5/10/12 105/9/12 107/13/12 7/16/12
f 1/6/8 2/5/8 102/8/8 101/7/8
f 131/29/1 132/30/1 24/31/1 23/32/1
f 23/32/2 24/31/2 22/33/2 21/34/2
f 129/35/3 131/29/3 23/32/3 21/34/3
f 132/30/4 130/36/4 22/33/4 24/31/4
f 133/37/5 25/38/5 26/39/5 134/40/5
f 135/41/6 136/42/6 28/43/6 27/44/6
f 26/39/2 25/38/2 27/44/2 28/43/2
f 134/40/7 26/39/7 28/43/7 136/42/7
f 37/45/8 30/46/8 32/47/8 38/48/8
f 38/48/9 32/47/9 36/49/9 39/50/9
f 39/50/10 36/49/10 34/51/10 40/52/10
f 40/52/2 34/51/2 30/46/2 37/45/2
f 31/53/3 35/54/3 33/55/3 29/56/3
f 36/49/4 32/47/4 30/46/4 34/51/4
f 33/55/2 40/52/2 37/45/2 29/56/2
f 35/54/11 39/50/11 40/52/11 33/55/11
f 31/53/9 38/48/9 39/50/9 35/54/9
f 29/56/8 37/45/8 38/48/8 31/53/8
f 25/38/12 133/37/12 135/41/12 27/44/12
f 21/34/8 22/33/8 130/36/8 129/35/8
f 159/57/1 160/58/1 44/59/1 43/60/1
f 43/60/2 44/59/2 42/61/2 41/62/2
f 157/63/3 159/57/3 43/60/3 41/62/3
f 160/58/4 158/64/4 42/61/4 44/59/4
f 161/65/5 45/66/5 46/67/5 162/68/5
f 163/69/6 164/70/6 48/71/6 47/72/6
f 46/67/2 45/66/2 47/72/2 48/71/2
f 162/68/7 46/67/7 48/71/7 164/70/7
f 57/73/8 50/74/8 52/75/8 58/76/8
f 58/76/9 52/75/9 56/77/9 59/78/9
f 59/78/10 56/77/10 54/79/10 60/80/10
f 60/80/2 54/79/2 50/74/2 57/73/2
f 51/81/3 55/82/3 53/83/3 49/84/3
f 56/77/4 52/75/4 50/74/4 54/79/4
f 53/83/2 60/80/2 57/73/2 49/84/2
f 55/82/11 59/78/11 60/80/11 53/83/11
f 51/81/9 58/76/9 59/78/9 55/82/9
f 49/84/8 57/73/8 58/76/8 51/81/8
f 45/66/12 161/65/12 163/69/12 47/72/12
f 41/62/8 42/61/8 158/64/8 157/63/8
f 187/85/1 188/86/1 64/87/1 63/88/1
f 63/88/2 64/87/2 62/89/2 61/90/2
f 185/91/3 187/85/3 63/88/3 61/90/3
f 188/86/4 186/92/4 62/89/4 64/87/4
f 189/93/5 65/94/5 66/95/5 190/96/5
f 191/97/6 192/98/6 68/99/6 67/100/6
f 66/95/2 65/94/2 67/100/2 68/99/2
f 190/96/7 66/95/7 68/99/7 192/98/7
f 77/101/8 70/102/8 72/103/8 78/104/8
f 78/104/9 72/103/9 76/105/9 79/106/9
f 79/106/10 76/105/10 74/107/10 80/108/10
f 80/108/2 74/107/2 70/102/2 77/101/2
f 71/109/3 75/110/3 73/111/3 69/112/3
f 76/105/4 72/103/4 70/102/4 74/107/4
f 73/111/2 80/108/2 77/101/2 69/112/2
f 75/110/11 79/106/11 80/108/11 73/111/11
f 71/109/9 78/104/9 79/106/9 75/110/9
f 69/112/8 77/101/8 78/104/8 71/109/8
f 65/94/12 189/93/12 191/97/12 67/100/12
f 61/90/8 62/89/8 186/92/8 185/91/8
f 103/1/1 83/113/1 84/114/1 104/2/1
f 83/113/9 81/115/9 82/116/9 84/114/9
f 101/7/3 81/115/3 83/113/3 103/1/3
f 104/2/4 84/114/4 82/116/4 102/8/4
f 105/9/5 106/12/5 86/117/5 85/118/5
f 107/13/6 87/119/6 88/120/6 108/14/6
f 86/117/9 88/120/9 87/119/9 85/118/9
f 106/12/7 108/14/7 88/120/7 86/117/7
f 97/121/8 98/122/8 92/123/8 90/124/8
f 98/122/2 99/125/2 96/126/2 92/123/2
f 99/125/10 100/127/10 94/128/10 96/126/10
f 100/127/9 97/121/9 90/124/9 94/128/9
f 91/129/3 89/130/3 93/131/3 95/132/3
f 96/126/4 94/128/4 90/124/4 92/123/4
f 93/131/9 89/130/9 97/121/9 100/127/9
f 95/132/11 93/131/11 100/127/11 99/125/11
f 91/129/2 95/132/2 99/125/2 98/122/2
f 89/130/8 91/129/8 98/122/8 97/121/8
f 85/118/12 87/119/12 107/13/12 105/9/12
f 81/115/8 101/7/8 102/8/8 82/116/8
f 131/29/1 111/133/1 112/134/1 132/30/1
f 111/133/9 109/135/9 110/136/9 112/134/9
f 129/35/3 109/135/3 111/133/3 131/29/3
f 132/30/4 112/134/4 110/136/4 130/36/4
f 133/37/5 134/40/5 114/137/5 113/138/5
f 135/41/6 115/139/6 116/140/6 136/42/6
f 114/137/9 116/140/9 115/139/9 113/138/9
f 134/40/7 136/42/7 116/140/7 114/137/7
f 125/141/8 126/142/8 120/143/8 118/144/8
f 126/142/2 127/145/2 124/146/2 120/143/2
f 127/145/10 128/147/10 122/148/10 124/146/10
f 128/147/9 125/141/9 118/144/9 122/148/9
f 119/149/3 117/150/3 121/151/3 123/152/3
f 124/146/4 122/148/4 118/144/4 120/143/4
f 121/151/9 117/150/9 125/141/9 128/147/9
f 123/152/11 121/151/11 128/147/11 127/145/11
f 119/149/2 123/152/2 127/145/2 126/142/2
f 117/150/8 119/149/8 126/142/8 125/141/8
f 113/138/12 115/139/12 135/41/12 133/37/12
f 109/135/8 129/35/8 130/36/8 110/136/8
f 159/57/1 139/153/1 140/154/1 160/58/1
f 139/153/9 137/155/9 138/156/9 140/154/9
f 157/63/3 137/155/3 139/153/3 159/57/3
f 160/58/4 140/154/4 138/156/4 158/64/4
f 161/65/5 162/68/5 142/157/5 141/158/5
f 163/69/6 143/159/6 144/160/6 164/70/6
f 142/157/9 144/160/9 143/159/9 141/158/9
f 162/68/7 164/70/7 144/160/7 142/157/7
f 153/161/8 154/162/8 148/163/8 146/164/8
f 154/162/2 155/165/2 152/166/2 148/163/2
f 155/165/10 156/167/10 150/168/10 152/166/10
f 156/167/9 153/161/9 146/164/9 150/168/9
f 147/169/3 145/170/3 149/171/3 151/172/3
f 152/166/4 150/168/4 146/164/4 148/163/4
f 149/171/9 145/170/9 153/161/9 156/167/9
f 151/172/11 149/171/11 156/167/11 155/165/11
f 147/169/2 151/172/2 155/165/2 154/162/2
f 145/170/8 147/169/8 154/162/8 153/161/8
f 141/158/12 143/159/12 163/69/12 161/65/12
f 137/155/8 157/63/8 158/64/8 138/156/8
f 187/85/1 167/173/1 168/174/1 188/86/1
f 167/173/9 165/175/9 166/176/9 168/174/9
f 185/91/3 165/175/3 167/173/3 187/85/3
f 188/86/4 168/174/4 166/176/4 186/92/4
f 189/93/5 190/96/5 170/177/5 169/178/5
f 191/97/6 171/179/6 172/180/6 192/98/6
f 170/177/9 172/180/9 171/179/9 169/178/9
f 190/96/7 192/98/7 172/180/7 170/177/7
f 181/181/8 182/182/8 176/183/8 174/184/8
f 182/182/2 183/185/2 180/186/2 176/183/2
f 183/185/10 184/187/10 178/188/10 180/186/10
f 184/187/9 181/181/9 174/184/9 178/188/9
f 175/189/3 173/190/3 177/191/3 179/192/3
f 180/186/4 178/188/4 174/184/4 176/183/4
f 177/191/9 173/190/9 181/181/9 184/187/9
f 179/192/11 177/191/11 184/187/11 183/185/11
f 175/189/2 179/192/2 183/185/2 182/182/2
f 173/190/8 175/189/8 182/182/8 181/181/8
f 169/178/12 171/179/12 191/97/12 189/93/12
f 165/175/8 185/91/8 186/92/8 166/176/8
f 227/193/1 228/194/1 196/195/1 195/196/1
f 197/197/3 198/198/3 210/199/3 209/200/3
f 228/194/4 226/201/4 194/202/4 196/195/4
f 229/203/3 230/204/3 198/198/3 197/197/3
f 199/205/4 195/196/4 208/206/4 211/207/4
f 203/208/2 199/205/2 211/207/2 212/209/2
f 227/193/4 195/196/4 199/205/4 201/210/4 200/211/4 231/212/4
f 199/205/13 203/208/13 204/213/13 201/210/13
f 201/210/14 204/213/14 202/214/14 200/211/14
f 231/212/1 200/211/1 202/214/1 232/215/1
f 198/198/3 230/204/3 232/215/3 202/214/3 204/213/3 203/208/3
f 193/216/8 194/202/8 226/201/8 225/217/8
f 193/216/8 225/217/8 229/203/8 197/197/8
f 208/206/2 207/218/2 206/219/2 205/220/2
f 208/206/2 205/220/2 209/200/2 210/199/2
f 208/206/15 210/199/15 212/209/15 211/207/15
f 196/195/4 194/202/4 206/219/4 207/218/4
f 195/196/1 196/195/1 207/218/1 208/206/1
f 194/202/8 193/216/8 205/220/8 206/219/8
f 198/198/3 203/208/3 212/209/3 210/199/3
f 193/216/8 197/197/8 209/200/8 205/220/8
f 227/193/1 215/221/1 216/222/1 228/194/1
f 217/223/2 237/224/2 238/225/2 218/226/2
f 228/194/4 216/222/4 214/227/4 226/201/4
f 229/203/3 217/223/3 218/226/3 230/204/3
f 219/228/2 239/229/2 236/230/2 215/221/2
f 223/231/2 240/232/2 239/229/2 219/228/2
f 227/193/4 231/212/4 220/233/4 221/234/4 219/228/4 215/221/4
f 219/228/16 221/234/16 224/235/16 223/231/16
f 221/234/17 220/233/17 222/236/17 224/235/17
f 231/212/1 232/215/1 222/236/1 220/233/1
f 218/226/3 223/231/3 224/235/3 222/236/3 232/215/3 230/204/3
f 213/237/8 225/217/8 226/201/8 214/227/8
f 213/237/8 217/223/8 229/203/8 225/217/8
f 236/230/9 233/238/9 234/239/9 235/240/9
f 236/230/9 238/225/9 237/224/9 233/238/9
f 236/230/9 239/229/9 240/232/9 238/225/9
f 216/222/2 235/240/2 234/239/2 214/227/2
f 215/221/2 236/230/2 235/240/2 216/222/2
f 214/227/2 234/239/2 233/238/2 213/237/2
f 218/226/2 238/225/2 240/232/2 223/231/2
f 213/237/2 233/238/2 237/224/2 217/223/2
f 241/241/9 243/242/9 244/243/9 242/244/9
f 246/245/2 247/246/2 248/247/2 245/248/2
f 242/244/8 244/243/8 248/247/8 247/246/8
f 243/242/1 241/241/1 246/245/1 245/248/1
f 244/243/3 243/242/3 245/248/3 248/247/3
f 241/241/4 242/244/4 247/246/4 246/245/4
