# Blender v2.93.0 OBJ File: 'Assets.blend'
# www.blender.org
mtllib Shelf_FlatCap_4.mtl
o Shelf_FlatCap_4_Cube.025
v -6.284694 -0.020350 1.840117
v -6.284694 3.529033 1.840117
v -6.230227 -0.020350 1.840117
v -6.230227 3.529033 1.840117
v -6.284694 -0.474450 1.840117
v -6.230227 -0.474450 1.840117
v -5.316033 -0.020350 1.840117
v -5.278001 -0.020350 1.802689
v -5.289140 -0.020350 1.829154
v -5.278001 -0.474450 1.802689
v -5.316033 -0.474450 1.840117
v -5.289140 -0.474450 1.829154
v -6.284694 -0.020350 -0.128116
v -6.284694 3.529033 -0.128116
v -6.230227 -0.020350 -0.128116
v -6.230227 3.529033 -0.128116
v -6.284694 -0.474450 -0.128116
v -6.230227 -0.474450 -0.128116
v -5.316033 -0.020350 -0.128116
v -5.278001 -0.020350 -0.090688
v -5.289140 -0.020350 -0.117154
v -5.278001 -0.474450 -0.090688
v -5.316033 -0.474450 -0.128116
v -5.289140 -0.474450 -0.117154
v -6.284694 -0.020350 0.856000
v -6.284694 3.529033 0.856000
v -6.230227 -0.020350 0.856000
v -6.230227 3.529033 0.856000
v -6.284694 -0.474450 0.856000
v -6.230227 -0.474450 0.856000
v -5.278001 -0.020350 0.856000
v -5.278001 -0.474450 0.856000
v -6.223114 -0.022044 1.823423
v -6.223114 0.022044 1.823423
v -5.272677 -0.022044 1.823423
v -5.272677 0.022044 1.823423
v -5.266832 -0.030409 1.825055
v -5.286326 0.028154 1.825055
v -5.242602 -0.012720 1.825055
v -5.262095 0.045842 1.825055
v -6.161400 -0.211570 1.528876
v -6.161400 -0.007331 1.528876
v -6.161400 -0.211570 1.487583
v -6.161400 -0.007331 1.487583
v -6.101540 -0.211570 1.528876
v -5.913523 -0.007331 1.528876
v -6.101540 -0.211570 1.487583
v -5.913523 -0.007331 1.487583
v -6.161400 -0.109451 1.528876
v -6.161400 -0.109451 1.487583
v -6.035696 -0.109451 1.487583
v -6.035696 -0.109451 1.528876
v -6.223114 1.012956 1.823423
v -6.223114 1.057044 1.823423
v -5.272677 1.012956 1.823423
v -5.272677 1.057044 1.823423
v -5.266832 1.004591 1.825055
v -5.286326 1.063154 1.825055
v -5.242602 1.022280 1.825055
v -5.262095 1.080842 1.825055
v -6.231543 0.823430 1.528876
v -6.231543 1.027669 1.528876
v -6.231543 0.823430 1.487583
v -6.231543 1.027669 1.487583
v -6.171683 0.823430 1.528876
v -5.983665 1.027669 1.528876
v -6.171683 0.823430 1.487583
v -5.983665 1.027669 1.487583
v -6.231543 0.925549 1.528876
v -6.231543 0.925549 1.487583
v -6.105838 0.925549 1.487583
v -6.105838 0.925549 1.528876
v -6.223114 2.047956 1.823423
v -6.223114 2.092044 1.823423
v -5.272677 2.047956 1.823423
v -5.272677 2.092044 1.823423
v -5.266832 2.039591 1.825055
v -5.286326 2.098154 1.825055
v -5.242602 2.057280 1.825055
v -5.262095 2.115842 1.825055
v -6.231543 1.858430 1.528876
v -6.231543 2.062669 1.528876
v -6.231543 1.858430 1.487583
v -6.231543 2.062669 1.487583
v -6.171683 1.858430 1.528876
v -5.983665 2.062669 1.528876
v -6.171683 1.858430 1.487583
v -5.983665 2.062669 1.487583
v -6.231543 1.960549 1.528876
v -6.231543 1.960549 1.487583
v -6.105838 1.960549 1.487583
v -6.105838 1.960549 1.528876
v -6.223114 3.082956 1.823423
v -6.223114 3.127044 1.823423
v -5.272677 3.082956 1.823423
v -5.272677 3.127044 1.823423
v -5.266832 3.074591 1.825055
v -5.286326 3.133154 1.825055
v -5.242602 3.092280 1.825055
v -5.262095 3.150842 1.825055
v -6.231543 2.893430 1.528876
v -6.231543 3.097669 1.528876
v -6.231543 2.893430 1.487583
v -6.231543 3.097669 1.487583
v -6.171683 2.893430 1.528876
v -5.983665 3.097669 1.528876
v -6.171683 2.893430 1.487583
v -5.983665 3.097669 1.487583
v -6.231543 2.995549 1.528876
v -6.231543 2.995549 1.487583
v -6.105838 2.995549 1.487583
v -6.105838 2.995549 1.528876
v -6.223114 -0.022044 -0.111422
v -6.223114 0.022044 -0.111422
v -5.272677 -0.022044 -0.111422
v -5.272677 0.022044 -0.111422
v -5.266832 -0.030409 -0.113055
v -5.286326 0.028154 -0.113055
v -5.242602 -0.012720 -0.113055
v -5.262095 0.045842 -0.113055
v -6.161400 -0.211570 0.183124
v -6.161400 -0.007331 0.183124
v -6.161400 -0.211570 0.224418
v -6.161400 -0.007331 0.224418
v -6.101540 -0.211570 0.183124
v -5.913523 -0.007331 0.183124
v -6.101540 -0.211570 0.224418
v -5.913523 -0.007331 0.224418
v -6.161400 -0.109451 0.183124
v -6.161400 -0.109451 0.224418
v -6.035696 -0.109451 0.224418
v -6.035696 -0.109451 0.183124
v -6.223114 -0.022044 0.856000
v -6.223114 0.022044 0.856000
v -5.272677 -0.022044 0.856000
v -5.272677 0.022044 0.856000
v -5.266832 -0.030409 0.856000
v -5.286326 0.028154 0.856000
v -5.242602 -0.012720 0.856000
v -5.262095 0.045842 0.856000
v -6.223114 1.012956 -0.111422
v -6.223114 1.057044 -0.111422
v -5.272677 1.012956 -0.111422
v -5.272677 1.057044 -0.111422
v -5.266832 1.004591 -0.113055
v -5.286326 1.063154 -0.113055
v -5.242602 1.022280 -0.113055
v -5.262095 1.080842 -0.113055
v -6.231543 0.823430 0.183124
v -6.231543 1.027669 0.183124
v -6.231543 0.823430 0.224418
v -6.231543 1.027669 0.224418
v -6.171683 0.823430 0.183124
v -5.983665 1.027669 0.183124
v -6.171683 0.823430 0.224418
v -5.983665 1.027669 0.224418
v -6.231543 0.925549 0.183124
v -6.231543 0.925549 0.224418
v -6.105838 0.925549 0.224418
v -6.105838 0.925549 0.183124
v -6.223114 1.012956 0.856000
v -6.223114 1.057044 0.856000
v -5.272677 1.012956 0.856000
v -5.272677 1.057044 0.856000
v -5.266832 1.004591 0.856000
v -5.286326 1.063154 0.856000
v -5.242602 1.022280 0.856000
v -5.262095 1.080842 0.856000
v -6.223114 2.047956 -0.111422
v -6.223114 2.092044 -0.111422
v -5.272677 2.047956 -0.111422
v -5.272677 2.092044 -0.111422
v -5.266832 2.039591 -0.113055
v -5.286326 2.098154 -0.113055
v -5.242602 2.057280 -0.113055
v -5.262095 2.115842 -0.113055
v -6.231543 1.858430 0.183124
v -6.231543 2.062669 0.183124
v -6.231543 1.858430 0.224418
v -6.231543 2.062669 0.224418
v -6.171683 1.858430 0.183124
v -5.983665 2.062669 0.183124
v -6.171683 1.858430 0.224418
v -5.983665 2.062669 0.224418
v -6.231543 1.960549 0.183124
v -6.231543 1.960549 0.224418
v -6.105838 1.960549 0.224418
v -6.105838 1.960549 0.183124
v -6.223114 2.047956 0.856000
v -6.223114 2.092044 0.856000
v -5.272677 2.047956 0.856000
v -5.272677 2.092044 0.856000
v -5.266832 2.039591 0.856000
v -5.286326 2.098154 0.856000
v -5.242602 2.057280 0.856000
v -5.262095 2.115842 0.856000
v -6.223114 3.082956 -0.111422
v -6.223114 3.127044 -0.111422
v -5.272677 3.082956 -0.111422
v -5.272677 3.127044 -0.111422
v -5.266832 3.074591 -0.113055
v -5.286326 3.133154 -0.113055
v -5.242602 3.092280 -0.113055
v -5.262095 3.150842 -0.113055
v -6.231543 2.893430 0.183124
v -6.231543 3.097669 0.183124
v -6.231543 2.893430 0.224418
v -6.231543 3.097669 0.224418
v -6.171683 2.893430 0.183124
v -5.983665 3.097669 0.183124
v -6.171683 2.893430 0.224418
v -5.983665 3.097669 0.224418
v -6.231543 2.995549 0.183124
v -6.231543 2.995549 0.224418
v -6.105838 2.995549 0.224418
v -6.105838 2.995549 0.183124
v -6.223114 3.082956 0.856000
v -6.223114 3.127044 0.856000
v -5.272677 3.082956 0.856000
v -5.272677 3.127044 0.856000
v -5.266832 3.074591 0.856000
v -5.286326 3.133154 0.856000
v -5.242602 3.092280 0.856000
v -5.262095 3.150842 0.856000
vt 0.311012 0.190059
vt 0.311012 0.190059
vt 0.311012 0.190059
vt 0.311012 0.190059
vt 0.311012 0.190059
vt 0.311012 0.190059
vt 0.311012 0.190059
vt 0.311012 0.190059
vt 0.311012 0.190059
vt 0.311012 0.190059
vt 0.311012 0.190059
vt 0.311012 0.190059
vt 0.311012 0.190059
vt 0.311012 0.190059
vt 0.311012 0.190059
vt 0.311012 0.190059
vt 0.311012 0.190059
vt 0.311012 0.190059
vt 0.311012 0.190059
vt 0.311012 0.190059
vt 0.311012 0.190059
vt 0.311012 0.190059
vt 0.311012 0.190059
vt 0.311012 0.190059
vt 0.311012 0.190059
vt 0.311012 0.190059
vt 0.311012 0.190059
vt 0.311012 0.190059
vt 0.311012 0.190059
vt 0.311012 0.190059
vt 0.311012 0.190059
vt 0.311012 0.190059
vt 0.311012 0.190059
vt 0.311012 0.190059
vt 0.311012 0.190059
vt 0.311012 0.190059
vt 0.311012 0.190059
vt 0.311012 0.190059
vt 0.311012 0.190059
vt 0.311012 0.190059
vt 0.434484 0.424405
vt 0.434484 0.424405
vt 0.434484 0.424405
vt 0.434484 0.424405
vt 0.434484 0.424405
vt 0.434484 0.424405
vt 0.434484 0.424405
vt 0.434484 0.424405
vt 0.311012 0.190059
vt 0.311012 0.190059
vt 0.311012 0.190059
vt 0.311012 0.190059
vt 0.311012 0.190059
vt 0.311012 0.190059
vt 0.311012 0.190059
vt 0.311012 0.190059
vt 0.311012 0.190059
vt 0.311012 0.190059
vt 0.311012 0.190059
vt 0.311012 0.190059
vt 0.311012 0.190059
vt 0.311012 0.190059
vt 0.311012 0.190059
vt 0.311012 0.190059
vt 0.311012 0.190059
vt 0.311012 0.190059
vt 0.311012 0.190059
vt 0.311012 0.190059
vt 0.434484 0.424405
vt 0.434484 0.424405
vt 0.434484 0.424405
vt 0.434484 0.424405
vt 0.434484 0.424405
vt 0.434484 0.424405
vt 0.434484 0.424405
vt 0.434484 0.424405
vt 0.311012 0.190059
vt 0.311012 0.190059
vt 0.311012 0.190059
vt 0.311012 0.190059
vt 0.311012 0.190059
vt 0.311012 0.190059
vt 0.311012 0.190059
vt 0.311012 0.190059
vt 0.311012 0.190059
vt 0.311012 0.190059
vt 0.311012 0.190059
vt 0.311012 0.190059
vt 0.311012 0.190059
vt 0.311012 0.190059
vt 0.311012 0.190059
vt 0.311012 0.190059
vt 0.311012 0.190059
vt 0.311012 0.190059
vt 0.311012 0.190059
vt 0.311012 0.190059
vt 0.434484 0.424405
vt 0.434484 0.424405
vt 0.434484 0.424405
vt 0.434484 0.424405
vt 0.434484 0.424405
vt 0.434484 0.424405
vt 0.434484 0.424405
vt 0.434484 0.424405
vt 0.311012 0.190059
vt 0.311012 0.190059
vt 0.311012 0.190059
vt 0.311012 0.190059
vt 0.311012 0.190059
vt 0.311012 0.190059
vt 0.311012 0.190059
vt 0.311012 0.190059
vt 0.311012 0.190059
vt 0.311012 0.190059
vt 0.311012 0.190059
vt 0.311012 0.190059
vt 0.311012 0.190059
vt 0.311012 0.190059
vt 0.311012 0.190059
vt 0.311012 0.190059
vt 0.311012 0.190059
vt 0.311012 0.190059
vt 0.311012 0.190059
vt 0.311012 0.190059
vt 0.434484 0.424405
vt 0.434484 0.424405
vt 0.434484 0.424405
vt 0.434484 0.424405
vt 0.434484 0.424405
vt 0.434484 0.424405
vt 0.434484 0.424405
vt 0.434484 0.424405
vt 0.311012 0.190059
vt 0.311012 0.190059
vt 0.311012 0.190059
vt 0.311012 0.190059
vt 0.311012 0.190059
vt 0.311012 0.190059
vt 0.311012 0.190059
vt 0.311012 0.190059
vt 0.311012 0.190059
vt 0.311012 0.190059
vt 0.311012 0.190059
vt 0.311012 0.190059
vt 0.311012 0.190059
vt 0.311012 0.190059
vt 0.311012 0.190059
vt 0.311012 0.190059
vt 0.434484 0.424405
vt 0.434484 0.424405
vt 0.434484 0.424405
vt 0.434484 0.424405
vt 0.311012 0.190059
vt 0.311012 0.190059
vt 0.311012 0.190059
vt 0.311012 0.190059
vt 0.311012 0.190059
vt 0.311012 0.190059
vt 0.311012 0.190059
vt 0.311012 0.190059
vt 0.311012 0.190059
vt 0.311012 0.190059
vt 0.311012 0.190059
vt 0.311012 0.190059
vt 0.311012 0.190059
vt 0.311012 0.190059
vt 0.311012 0.190059
vt 0.311012 0.190059
vt 0.434484 0.424405
vt 0.434484 0.424405
vt 0.434484 0.424405
vt 0.434484 0.424405
vt 0.311012 0.190059
vt 0.311012 0.190059
vt 0.311012 0.190059
vt 0.311012 0.190059
vt 0.311012 0.190059
vt 0.311012 0.190059
vt 0.311012 0.190059
vt 0.311012 0.190059
vt 0.311012 0.190059
vt 0.311012 0.190059
vt 0.311012 0.190059
vt 0.311012 0.190059
vt 0.311012 0.190059
vt 0.311012 0.190059
vt 0.311012 0.190059
vt 0.311012 0.190059
vt 0.434484 0.424405
vt 0.434484 0.424405
vt 0.434484 0.424405
vt 0.434484 0.424405
vt 0.311012 0.190059
vt 0.311012 0.190059
vt 0.311012 0.190059
vt 0.311012 0.190059
vt 0.311012 0.190059
vt 0.311012 0.190059
vt 0.311012 0.190059
vt 0.311012 0.190059
vt 0.311012 0.190059
vt 0.311012 0.190059
vt 0.311012 0.190059
vt 0.311012 0.190059
vt 0.311012 0.190059
vt 0.311012 0.190059
vt 0.311012 0.190059
vt 0.311012 0.190059
vt 0.434484 0.424405
vt 0.434484 0.424405
vt 0.434484 0.424405
vt 0.434484 0.424405
vt 0.311012 0.190059
vt 0.311012 0.190059
vt 0.311012 0.190059
vt 0.311012 0.190059
vt 0.311012 0.190059
vt 0.311012 0.190059
vt 0.311012 0.190059
vt 0.311012 0.190059
vt 0.311012 0.190059
vt 0.311012 0.190059
vt 0.311012 0.190059
vt 0.311012 0.190059
vn 1.0000 0.0000 0.0000
vn 0.0000 0.0000 1.0000
vn 0.0000 1.0000 0.0000
vn 0.0000 -1.0000 0.0000
vn 0.3775 0.0000 0.9260
vn 0.9217 0.0000 0.3879
vn -1.0000 0.0000 0.0000
vn 0.0000 0.0000 -1.0000
vn 0.3775 0.0000 -0.9260
vn 0.9217 0.0000 -0.3879
vn -0.9488 -0.3158 0.0000
vn 0.9488 0.3158 0.0000
vn -0.5896 0.8077 0.0000
vn 0.6413 -0.7673 0.0000
vn 0.8404 -0.5419 0.0000
vn 0.5896 -0.8077 0.0000
usemtl ShelfPallete
s off
f 27/1/1 28/2/1 4/3/1 3/4/1
f 3/4/2 4/3/2 2/5/2 1/6/2
f 28/2/3 26/7/3 2/5/3 4/3/3
f 29/8/4 30/9/4 6/10/4 5/11/4
f 3/4/2 1/6/2 5/11/2 6/10/2
f 3/4/2 6/10/2 11/12/2 7/13/2
f 27/1/3 3/4/3 7/13/3 9/14/3 8/15/3 31/16/3
f 7/13/5 11/12/5 12/17/5 9/14/5
f 9/14/6 12/17/6 10/18/6 8/15/6
f 31/16/1 8/15/1 10/18/1 32/19/1
f 6/10/4 30/9/4 32/19/4 10/18/4 12/17/4 11/12/4
f 1/6/7 2/5/7 26/7/7 25/20/7
f 1/6/7 25/20/7 29/8/7 5/11/7
f 27/1/1 15/21/1 16/22/1 28/2/1
f 15/21/8 13/23/8 14/24/8 16/22/8
f 28/2/3 16/22/3 14/24/3 26/7/3
f 29/8/4 17/25/4 18/26/4 30/9/4
f 15/21/8 18/26/8 17/25/8 13/23/8
f 15/21/8 19/27/8 23/28/8 18/26/8
f 27/1/3 31/16/3 20/29/3 21/30/3 19/27/3 15/21/3
f 19/27/9 21/30/9 24/31/9 23/28/9
f 21/30/10 20/29/10 22/32/10 24/31/10
f 31/16/1 32/19/1 22/32/1 20/29/1
f 18/26/4 23/28/4 24/31/4 22/32/4 32/19/4 30/9/4
f 13/23/7 25/20/7 26/7/7 14/24/7
f 13/23/7 17/25/7 29/8/7 25/20/7
f 135/33/1 136/34/1 36/35/1 35/36/1
f 35/36/2 36/35/2 34/37/2 33/38/2
f 133/39/4 135/33/4 35/36/4 33/38/4
f 136/34/3 134/40/3 34/37/3 36/35/3
f 137/41/11 37/42/11 38/43/11 138/44/11
f 139/45/12 140/46/12 40/47/12 39/48/12
f 38/43/2 37/42/2 39/48/2 40/47/2
f 138/44/13 38/43/13 40/47/13 140/46/13
f 49/49/7 42/50/7 44/51/7 50/52/7
f 50/52/8 44/51/8 48/53/8 51/54/8
f 51/54/14 48/53/14 46/55/14 52/56/14
f 52/56/2 46/55/2 42/50/2 49/49/2
f 43/57/4 47/58/4 45/59/4 41/60/4
f 48/53/3 44/51/3 42/50/3 46/55/3
f 45/59/2 52/56/2 49/49/2 41/60/2
f 47/58/15 51/54/15 52/56/15 45/59/15
f 43/57/8 50/52/8 51/54/8 47/58/8
f 41/60/7 49/49/7 50/52/7 43/57/7
f 37/42/16 137/41/16 139/45/16 39/48/16
f 33/38/7 34/37/7 134/40/7 133/39/7
f 163/61/1 164/62/1 56/63/1 55/64/1
f 55/64/2 56/63/2 54/65/2 53/66/2
f 161/67/4 163/61/4 55/64/4 53/66/4
f 164/62/3 162/68/3 54/65/3 56/63/3
f 165/69/11 57/70/11 58/71/11 166/72/11
f 167/73/12 168/74/12 60/75/12 59/76/12
f 58/71/2 57/70/2 59/76/2 60/75/2
f 166/72/13 58/71/13 60/75/13 168/74/13
f 69/77/7 62/78/7 64/79/7 70/80/7
f 70/80/8 64/79/8 68/81/8 71/82/8
f 71/82/14 68/81/14 66/83/14 72/84/14
f 72/84/2 66/83/2 62/78/2 69/77/2
f 63/85/4 67/86/4 65/87/4 61/88/4
f 68/81/3 64/79/3 62/78/3 66/83/3
f 65/87/2 72/84/2 69/77/2 61/88/2
f 67/86/15 71/82/15 72/84/15 65/87/15
f 63/85/8 70/80/8 71/82/8 67/86/8
f 61/88/7 69/77/7 70/80/7 63/85/7
f 57/70/16 165/69/16 167/73/16 59/76/16
f 53/66/7 54/65/7 162/68/7 161/67/7
f 191/89/1 192/90/1 76/91/1 75/92/1
f 75/92/2 76/91/2 74/93/2 73/94/2
f 189/95/4 191/89/4 75/92/4 73/94/4
f 192/90/3 190/96/3 74/93/3 76/91/3
f 193/97/11 77/98/11 78/99/11 194/100/11
f 195/101/12 196/102/12 80/103/12 79/104/12
f 78/99/2 77/98/2 79/104/2 80/103/2
f 194/100/13 78/99/13 80/103/13 196/102/13
f 89/105/7 82/106/7 84/107/7 90/108/7
f 90/108/8 84/107/8 88/109/8 91/110/8
f 91/110/14 88/109/14 86/111/14 92/112/14
f 92/112/2 86/111/2 82/106/2 89/105/2
f 83/113/4 87/114/4 85/115/4 81/116/4
f 88/109/3 84/107/3 82/106/3 86/111/3
f 85/115/2 92/112/2 89/105/2 81/116/2
f 87/114/15 91/110/15 92/112/15 85/115/15
f 83/113/8 90/108/8 91/110/8 87/114/8
f 81/116/7 89/105/7 90/108/7 83/113/7
f 77/98/16 193/97/16 195/101/16 79/104/16
f 73/94/7 74/93/7 190/96/7 189/95/7
f 219/117/1 220/118/1 96/119/1 95/120/1
f 95/120/2 96/119/2 94/121/2 93/122/2
f 217/123/4 219/117/4 95/120/4 93/122/4
f 220/118/3 218/124/3 94/121/3 96/119/3
f 221/125/11 97/126/11 98/127/11 222/128/11
f 223/129/12 224/130/12 100/131/12 99/132/12
f 98/127/2 97/126/2 99/132/2 100/131/2
f 222/128/13 98/127/13 100/131/13 224/130/13
f 109/133/7 102/134/7 104/135/7 110/136/7
f 110/136/8 104/135/8 108/137/8 111/138/8
f 111/138/14 108/137/14 106/139/14 112/140/14
f 112/140/2 106/139/2 102/134/2 109/133/2
f 103/141/4 107/142/4 105/143/4 101/144/4
f 108/137/3 104/135/3 102/134/3 106/139/3
f 105/143/2 112/140/2 109/133/2 101/144/2
f 107/142/15 111/138/15 112/140/15 105/143/15
f 103/141/8 110/136/8 111/138/8 107/142/8
f 101/144/7 109/133/7 110/136/7 103/141/7
f 97/126/16 221/125/16 223/129/16 99/132/16
f 93/122/7 94/121/7 218/124/7 217/123/7
f 135/33/1 115/145/1 116/146/1 136/34/1
f 115/145/8 113/147/8 114/148/8 116/146/8
f 133/39/4 113/147/4 115/145/4 135/33/4
f 136/34/3 116/146/3 114/148/3 134/40/3
f 137/41/11 138/44/11 118/149/11 117/150/11
f 139/45/12 119/151/12 120/152/12 140/46/12
f 118/149/8 120/152/8 119/151/8 117/150/8
f 138/44/13 140/46/13 120/152/13 118/149/13
f 129/153/7 130/154/7 124/155/7 122/156/7
f 130/154/2 131/157/2 128/158/2 124/155/2
f 131/157/14 132/159/14 126/160/14 128/158/14
f 132/159/8 129/153/8 122/156/8 126/160/8
f 123/161/4 121/162/4 125/163/4 127/164/4
f 128/158/3 126/160/3 122/156/3 124/155/3
f 125/163/8 121/162/8 129/153/8 132/159/8
f 127/164/15 125/163/15 132/159/15 131/157/15
f 123/161/2 127/164/2 131/157/2 130/154/2
f 121/162/7 123/161/7 130/154/7 129/153/7
f 117/150/16 119/151/16 139/45/16 137/41/16
f 113/147/7 133/39/7 134/40/7 114/148/7
f 163/61/1 143/165/1 144/166/1 164/62/1
f 143/165/8 141/167/8 142/168/8 144/166/8
f 161/67/4 141/167/4 143/165/4 163/61/4
f 164/62/3 144/166/3 142/168/3 162/68/3
f 165/69/11 166/72/11 146/169/11 145/170/11
f 167/73/12 147/171/12 148/172/12 168/74/12
f 146/169/8 148/172/8 147/171/8 145/170/8
f 166/72/13 168/74/13 148/172/13 146/169/13
f 157/173/7 158/174/7 152/175/7 150/176/7
f 158/174/2 159/177/2 156/178/2 152/175/2
f 159/177/14 160/179/14 154/180/14 156/178/14
f 160/179/8 157/173/8 150/176/8 154/180/8
f 151/181/4 149/182/4 153/183/4 155/184/4
f 156/178/3 154/180/3 150/176/3 152/175/3
f 153/183/8 149/182/8 157/173/8 160/179/8
f 155/184/15 153/183/15 160/179/15 159/177/15
f 151/181/2 155/184/2 159/177/2 158/174/2
f 149/182/7 151/181/7 158/174/7 157/173/7
f 145/170/16 147/171/16 167/73/16 165/69/16
f 141/167/7 161/67/7 162/68/7 142/168/7
f 191/89/1 171/185/1 172/186/1 192/90/1
f 171/185/8 169/187/8 170/188/8 172/186/8
f 189/95/4 169/187/4 171/185/4 191/89/4
f 192/90/3 172/186/3 170/188/3 190/96/3
f 193/97/11 194/100/11 174/189/11 173/190/11
f 195/101/12 175/191/12 176/192/12 196/102/12
f 174/189/8 176/192/8 175/191/8 173/190/8
f 194/100/13 196/102/13 176/192/13 174/189/13
f 185/193/7 186/194/7 180/195/7 178/196/7
f 186/194/2 187/197/2 184/198/2 180/195/2
f 187/197/14 188/199/14 182/200/14 184/198/14
f 188/199/8 185/193/8 178/196/8 182/200/8
f 179/201/4 177/202/4 181/203/4 183/204/4
f 184/198/3 182/200/3 178/196/3 180/195/3
f 181/203/8 177/202/8 185/193/8 188/199/8
f 183/204/15 181/203/15 188/199/15 187/197/15
f 179/201/2 183/204/2 187/197/2 186/194/2
f 177/202/7 179/201/7 186/194/7 185/193/7
f 173/190/16 175/191/16 195/101/16 193/97/16
f 169/187/7 189/95/7 190/96/7 170/188/7
f 219/117/1 199/205/1 200/206/1 220/118/1
f 199/205/8 197/207/8 198/208/8 200/206/8
f 217/123/4 197/207/4 199/205/4 219/117/4
f 220/118/3 200/206/3 198/208/3 218/124/3
f 221/125/11 222/128/11 202/209/11 201/210/11
f 223/129/12 203/211/12 204/212/12 224/130/12
f 202/209/8 204/212/8 203/211/8 201/210/8
f 222/128/13 224/130/13 204/212/13 202/209/13
f 213/213/7 214/214/7 208/215/7 206/216/7
f 214/214/2 215/217/2 212/218/2 208/215/2
f 215/217/14 216/219/14 210/220/14 212/218/14
f 216/219/8 213/213/8 206/216/8 210/220/8
f 207/221/4 205/222/4 209/223/4 211/224/4
f 212/218/3 210/220/3 206/216/3 208/215/3
f 209/223/8 205/222/8 213/213/8 216/219/8
f 211/224/15 209/223/15 216/219/15 215/217/15
f 207/221/2 211/224/2 215/217/2 214/214/2
f 205/222/7 207/221/7 214/214/7 213/213/7
f 201/210/16 203/211/16 223/129/16 221/125/16
f 197/207/7 217/123/7 218/124/7 198/208/7
