# Blender v2.93.1 OBJ File: ''
# www.blender.org
mtllib BuildingRoof.mtl
o Cube.005_Cube.007
v -10.596164 5.443428 -15.510739
v -10.596166 5.283993 -15.510738
v -10.438980 5.283992 15.353554
v 10.663714 5.443425 9.863412
v 10.663713 5.283991 9.863412
v 10.441421 5.283992 15.353554
v 10.441421 5.283992 -15.353554
v -10.438980 5.283992 -15.353554
v 10.441421 5.283992 -9.863412
v 10.598605 5.283991 15.510739
v 10.598607 5.443426 15.510738
v -10.596164 5.443428 15.510739
v -10.596166 5.283993 15.510738
v -10.661273 5.283994 9.863412
v -10.661272 5.443428 9.863412
v 10.441421 5.283992 9.863412
v -10.438980 5.283992 9.863412
v -10.438980 5.283992 -9.863412
v -10.438980 8.368038 0.000000
v 10.441421 8.368038 0.000000
v -10.438980 5.033774 15.353554
v 10.441422 5.033774 15.353554
v 10.441422 5.033774 -15.353554
v -10.438980 5.033774 -15.353554
v 10.441422 5.033774 -9.863412
v 10.441422 5.033774 9.863412
v -10.438980 5.033774 9.863412
v -10.438980 5.033774 -9.863412
v -10.438980 5.033774 0.000000
v 10.441422 5.033774 0.000000
v 9.349903 5.443427 14.772839
v -9.349901 5.443427 14.772839
v -10.438979 5.443427 15.353554
v -9.349901 5.443427 -14.772839
v 9.349903 5.443427 -14.772839
v 10.441422 5.443427 15.353554
v 10.441422 5.443427 -15.353554
v -10.438979 5.443427 -15.353554
v 10.441422 5.443427 -9.863412
v 9.349903 5.443427 -9.714040
v -9.349901 8.527472 0.000000
v -9.349901 5.443427 9.714040
v 9.349903 5.443427 9.714040
v 9.349903 8.527472 0.000000
v -9.349901 5.443427 -9.714040
v 10.441422 5.443427 9.863412
v -10.438979 5.443427 9.863412
v -10.438979 5.443427 -9.863412
v -10.438979 8.527472 0.000000
v 10.441422 8.527472 0.000000
v 10.598605 5.283991 -15.510739
v -10.661273 8.368039 0.000000
v 10.663713 8.368037 0.000000
v 10.663713 5.283991 -9.863412
v -10.661273 5.283994 -9.863412
v -10.661272 5.443428 -9.863412
v -10.661272 8.527473 0.000000
v 10.663714 8.527472 0.000000
v 10.663714 5.443425 -9.863412
v 10.598607 5.443426 -15.510738
vt 0.790625 0.462516
vt 0.995834 0.468503
vt 0.996805 0.471944
vt 0.791151 0.465911
vt 0.665186 0.900718
vt 0.663810 0.464911
vt 0.671416 0.464849
vt 0.672792 0.900655
vt 0.675690 0.010851
vt 0.790637 0.007641
vt 0.791162 0.011037
vt 0.675787 0.014266
vt 0.995856 0.895121
vt 0.791701 0.902128
vt 0.792212 0.898737
vt 0.996805 0.891693
vt 0.790614 0.003174
vt 0.995989 0.008989
vt 0.995854 0.013635
vt 0.996008 0.899516
vt 0.791699 0.906580
vt 0.791127 0.015531
vt 0.678915 0.017286
vt 0.657686 0.893399
vt 0.656358 0.472426
vt 0.680244 0.893141
vt 0.792157 0.894260
vt 0.677142 0.896171
vt 0.996680 0.476355
vt 0.791115 0.470405
vt 0.657722 0.438515
vt 0.656358 0.017546
vt 0.663809 0.010031
vt 0.665222 0.445833
vt 0.792183 0.439383
vt 0.996687 0.432621
vt 0.996826 0.436822
vt 0.792238 0.443858
vt 0.678922 0.462239
vt 0.790602 0.458050
vt 0.675690 0.465734
vt 0.996701 0.021488
vt 0.996826 0.017076
vt 0.122454 0.066013
vt 0.323417 0.003174
vt 0.323417 0.071109
vt 0.122454 0.071111
vt 0.642584 0.501625
vt 0.530729 0.501626
vt 0.530729 0.496528
vt 0.642584 0.496528
vt 0.329767 0.564463
vt 0.329766 0.496529
vt 0.329768 0.003174
vt 0.530726 0.066009
vt 0.530726 0.071107
vt 0.329768 0.071107
vt 0.650009 0.071087
vt 0.650009 0.496507
vt 0.642584 0.071107
vt 0.122459 0.501629
vt 0.010601 0.501630
vt 0.010601 0.496532
vt 0.122459 0.496531
vt 0.010600 0.066014
vt 0.010600 0.071112
vt 0.323417 0.564463
vt 0.323417 0.496531
vt 0.003176 0.496552
vt 0.003174 0.071132
vt 0.642584 0.066009
vt 0.691953 0.416278
vt 0.690738 0.039191
vt 0.793901 0.037645
vt 0.794861 0.417298
vt 0.690740 0.494116
vt 0.691915 0.871207
vt 0.678915 0.472168
vt 0.794835 0.872223
vt 0.793890 0.492567
vt 0.996153 0.043044
vt 0.996042 0.411129
vt 0.680280 0.438255
vt 0.996132 0.497957
vt 0.996022 0.866047
vt 0.996666 0.887492
vt 0.677067 0.899270
vt 0.675787 0.469148
vt 0.671415 0.009968
vt 0.672828 0.445771
vt 0.995877 0.440250
vt 0.791726 0.447250
vt 0.677103 0.444384
vt 0.677178 0.441285
vt 0.996029 0.444644
vt 0.791724 0.451701
vt 0.995968 0.463857
vt 0.680302 0.902746
vt 0.678923 0.007356
vt 0.680337 0.447859
vn 1.0000 -0.0000 -0.0000
vn -0.0000 0.0000 1.0000
vn -0.9999 0.0000 -0.0115
vn -1.0000 0.0000 0.0000
vn -0.0000 -0.9544 0.2984
vn -0.0000 -0.9544 -0.2984
vn 0.0000 1.0000 0.0000
vn -0.0000 -1.0000 0.0000
vn 0.0000 0.9544 0.2984
vn 0.0000 0.9544 -0.2984
vn 0.0000 0.0000 -1.0000
vn 0.0000 0.9531 -0.3026
vn -0.0206 0.9536 0.3004
vn 0.0206 0.9536 -0.3004
vn 0.0206 0.9536 0.3004
vn -0.0206 0.9536 -0.3004
vn 0.0000 0.9531 0.3026
vn -0.9999 0.0000 0.0115
vn 0.9999 -0.0000 0.0115
vn 0.9999 -0.0000 -0.0115
usemtl Material.001
s off
f 5/1/1 53/2/1 58/3/1 4/4/1
f 13/5/2 10/6/2 11/7/2 12/8/2
f 2/9/3 55/10/3 56/11/3 1/12/3
f 52/13/4 14/14/4 15/15/4 57/16/4
f 18/17/5 19/18/5 52/19/5 55/10/5
f 19/20/6 17/21/6 14/14/6 52/13/6
f 48/22/7 38/23/7 1/12/7 56/11/7
f 3/24/8 6/25/8 10/6/8 13/5/8
f 33/26/7 47/27/7 15/15/7 12/28/7
f 50/29/9 46/30/9 4/4/9 58/3/9
f 7/31/8 8/32/8 2/33/8 51/34/8
f 39/35/10 50/36/10 58/37/10 59/38/10
f 6/39/8 16/40/8 5/1/8 10/41/8
f 49/42/10 48/22/10 56/11/10 57/43/10
f 17/44/4 19/45/4 29/46/4 27/47/4
f 7/48/1 9/49/1 25/50/1 23/51/1
f 9/49/1 20/52/1 30/53/1 25/50/1
f 19/54/4 18/55/4 28/56/4 29/57/4
f 8/58/11 7/59/11 23/51/11 24/60/11
f 16/61/1 6/62/1 22/63/1 26/64/1
f 3/65/4 17/44/4 27/47/4 21/66/4
f 20/67/1 16/61/1 26/64/1 30/68/1
f 6/69/2 3/70/2 21/66/2 22/63/2
f 18/55/4 8/71/4 24/60/4 28/56/4
f 23/51/8 25/50/8 28/56/8 24/60/8
f 25/50/8 30/53/8 29/57/8 28/56/8
f 30/68/8 26/64/8 27/47/8 29/46/8
f 26/64/8 22/63/8 21/66/8 27/47/8
f 35/72/7 34/73/7 45/74/7 40/75/7
f 31/76/7 32/77/7 33/26/7 36/78/7
f 32/77/7 42/79/7 47/27/7 33/26/7
f 43/80/7 42/79/7 32/77/7 31/76/7
f 41/81/12 44/82/12 40/75/12 45/74/12
f 43/80/7 31/76/7 36/78/7 46/30/7
f 35/72/7 40/75/7 39/35/7 37/83/7
f 45/74/7 34/73/7 38/23/7 48/22/7
f 44/84/13 43/80/13 46/30/13 50/29/13
f 41/81/14 45/74/14 48/22/14 49/42/14
f 34/73/7 35/72/7 37/83/7 38/23/7
f 42/79/15 41/85/15 49/86/15 47/27/15
f 40/75/16 44/82/16 50/36/16 39/35/16
f 42/79/17 43/80/17 44/84/17 41/85/17
f 14/14/18 13/87/18 12/28/18 15/15/18
f 10/41/19 5/1/19 4/4/19 11/88/19
f 51/34/11 2/33/11 1/89/11 60/90/11
f 55/10/4 52/19/4 57/43/4 56/11/4
f 53/91/1 54/92/1 59/38/1 58/37/1
f 54/92/20 51/93/20 60/94/20 59/38/20
f 37/83/7 39/35/7 59/38/7 60/94/7
f 20/95/5 9/96/5 54/92/5 53/91/5
f 16/40/6 20/97/6 53/2/6 5/1/6
f 46/30/7 36/78/7 11/88/7 4/4/7
f 17/21/8 3/98/8 13/87/8 14/14/8
f 38/23/7 37/83/7 60/90/7 1/89/7
f 8/99/8 18/17/8 55/10/8 2/9/8
f 36/78/7 33/26/7 12/8/7 11/7/7
f 9/96/8 7/100/8 51/93/8 54/92/8
f 47/27/9 49/86/9 57/16/9 15/15/9
