# Blender v2.93.1 OBJ File: ''
# www.blender.org
mtllib BuildingFloor.mtl
o Cube.004_Cube.006
v 10.000000 -0.100000 -15.000000
v -10.000000 -0.100000 -15.000000
v -10.353554 -0.100000 -15.353554
v -10.000000 -0.100000 15.000000
v -10.353554 -0.100000 15.353554
v 10.000000 -0.100000 15.000000
v -10.000000 -0.100000 1.547188
v -10.500000 -0.100000 1.547188
v -10.500000 -0.100000 -1.547188
v -10.000000 -0.100000 -1.547188
v 10.000000 -0.100000 -1.547188
v 10.000000 -0.100000 1.547188
v 10.353554 -0.100000 15.353554
v 10.500000 -0.100000 1.547188
v 10.500000 -0.100000 -1.547188
v 10.353554 -0.100000 -15.353554
v 10.000000 -0.100000 0.000000
v -10.000000 -0.100000 0.000000
v 10.500000 -0.100000 0.000000
vt 0.667598 0.011514
vt 0.679111 0.000000
vt 0.004769 0.000000
vt 0.016283 0.011514
vt 0.667598 0.449615
vt 0.683881 0.449615
vt 0.016283 0.449615
vt 0.667598 0.988486
vt 0.667598 0.550385
vt 0.016283 0.550385
vt 0.016283 0.988486
vt 0.016283 0.500000
vt 0.667598 0.500000
vt 0.000000 0.500000
vt 0.000000 0.550385
vt 0.000000 0.449615
vt 0.004769 1.000000
vt 0.679111 1.000000
vt 0.683881 0.550385
vn 0.0000 1.0000 -0.0000
usemtl None
s off
f 4/1/1 5/2/1 13/3/1 6/4/1
f 7/5/1 8/6/1 5/2/1 4/1/1
f 7/5/1 4/1/1 6/4/1 12/7/1
f 2/8/1 10/9/1 11/10/1 1/11/1
f 17/12/1 11/10/1 10/9/1 18/13/1
f 17/12/1 19/14/1 15/15/1 11/10/1
f 6/4/1 13/3/1 14/16/1 12/7/1
f 11/10/1 15/15/1 16/17/1 1/11/1
f 1/11/1 16/17/1 3/18/1 2/8/1
f 2/8/1 3/18/1 9/19/1 10/9/1
f 12/7/1 14/16/1 19/14/1 17/12/1
f 12/7/1 17/12/1 18/13/1 7/5/1
